<svg width="60" height="30" viewBox="0 0 60 30" fill="none" xmlns="http://www.w3.org/2000/svg">
<rect width="60" height="30" rx="15" fill="black"/>
<path d="M21.88 16.34H23.86V21.35H21.88V16.34ZM16.615 15.755H29.17V17.375H16.615V15.755ZM21.865 9.935H23.62V10.265C23.62 12.59 21.61 14.615 17.935 15.05L17.245 13.49C20.38 13.13 21.865 11.555 21.865 10.265V9.935ZM22.12 9.935H23.875V10.265C23.875 11.525 25.375 13.13 28.495 13.49L27.79 15.05C24.13 14.63 22.12 12.53 22.12 10.265V9.935ZM17.74 9.035H28.03V10.61H17.74V9.035ZM21.88 7.475H23.86V9.575H21.88V7.475ZM39.2788 7.43H41.2888V21.32H39.2788V7.43ZM40.7638 12.74H43.2088V14.375H40.7638V12.74ZM35.6338 8.87H37.5838C37.5838 13.04 35.9938 16.61 31.3738 18.935L30.2638 17.42C33.9088 15.53 35.6338 12.98 35.6338 9.215V8.87ZM31.0288 8.87H36.6538V10.475H31.0288V8.87Z" fill="#E9E9E9"/>
</svg>
