<svg width="27" height="35" viewBox="0 0 27 35" fill="none" xmlns="http://www.w3.org/2000/svg">
<path fill-rule="evenodd" clip-rule="evenodd" d="M2.92838e-07 33.9055V4.37421C2.92838e-07 3.21388 0.460936 2.10109 1.28141 1.28061C2.10188 0.460143 3.21468 -0.000793457 4.375 -0.000793457L21.875 -0.000793457C23.0353 -0.000793457 24.1481 0.460143 24.9686 1.28061C25.7891 2.10109 26.25 3.21388 26.25 4.37421V33.9055C26.2501 34.0954 26.2008 34.2821 26.1069 34.4472C26.013 34.6122 25.8777 34.75 25.7143 34.8469C25.5509 34.9438 25.3652 34.9965 25.1753 34.9998C24.9854 35.0031 24.7979 34.9569 24.6313 34.8658L13.125 28.5876L1.61875 34.8658C1.45213 34.9569 1.26463 35.0031 1.07473 34.9998C0.884824 34.9965 0.699053 34.9438 0.535701 34.8469C0.372349 34.75 0.237048 34.6122 0.143116 34.4472C0.0491849 34.2821 -0.000138674 34.0954 2.92838e-07 33.9055ZM13.475 8.96796C13.443 8.90236 13.3933 8.84707 13.3314 8.80839C13.2695 8.76971 13.198 8.74921 13.125 8.74921C13.052 8.74921 12.9805 8.76971 12.9186 8.80839C12.8567 8.84707 12.807 8.90236 12.775 8.96796L11.3881 11.7789C11.3601 11.8355 11.3188 11.8846 11.2678 11.9219C11.2167 11.9592 11.1575 11.9837 11.095 11.9933L7.98875 12.4439C7.91724 12.4547 7.85017 12.4853 7.79505 12.5321C7.73993 12.579 7.69895 12.6402 7.67669 12.709C7.65443 12.7779 7.65178 12.8515 7.66903 12.9218C7.68629 12.992 7.72277 13.056 7.77438 13.1067L10.0188 15.2964C10.1106 15.3861 10.1522 15.5151 10.1303 15.642L9.60312 18.7351C9.59123 18.8066 9.5995 18.8799 9.62698 18.9469C9.65446 19.0139 9.70008 19.0719 9.7587 19.1144C9.81733 19.1568 9.88664 19.1822 9.95886 19.1874C10.0311 19.1927 10.1033 19.1777 10.1675 19.1442L12.9456 17.683C13.0014 17.6542 13.0633 17.6392 13.1261 17.6392C13.1889 17.6392 13.2508 17.6542 13.3066 17.683L16.0847 19.1442C16.1488 19.1771 16.2208 19.1916 16.2926 19.1861C16.3645 19.1805 16.4334 19.1551 16.4917 19.1127C16.55 19.0703 16.5953 19.0125 16.6227 18.9459C16.6501 18.8792 16.6585 18.8063 16.6469 18.7351L16.1175 15.6398C16.1067 15.5777 16.111 15.5138 16.13 15.4537C16.1491 15.3935 16.1823 15.3388 16.2269 15.2942L18.4756 13.1045C18.5272 13.0538 18.5637 12.9898 18.581 12.9196C18.5982 12.8493 18.5956 12.7757 18.5733 12.7069C18.5511 12.638 18.5101 12.5768 18.455 12.5299C18.3998 12.4831 18.3328 12.4526 18.2612 12.4417L15.155 11.9911C15.0925 11.9815 15.0333 11.957 14.9822 11.9197C14.9312 11.8824 14.8899 11.8333 14.8619 11.7767L13.475 8.96796Z" fill="black"/>
</svg>
