<svg width="50" height="50" viewBox="0 0 50 50" fill="none" xmlns="http://www.w3.org/2000/svg">
<path d="M49.5437 0.45626C49.7601 0.672923 49.908 0.948367 49.9691 1.24838C50.0302 1.54839 50.0018 1.85974 49.8875 2.14376L31.7031 47.6031C31.5429 48.0035 31.2753 48.3519 30.9298 48.6099C30.5843 48.868 30.1743 49.0257 29.745 49.0658C29.3156 49.1058 28.8835 49.0267 28.4962 48.837C28.109 48.6473 27.7815 48.3544 27.55 47.9906L17.6188 32.3813L2.00937 22.45C1.64474 22.2187 1.3511 21.8912 1.16084 21.5035C0.970588 21.1159 0.891118 20.6832 0.931203 20.2533C0.971288 19.8234 1.12937 19.4128 1.388 19.0671C1.64664 18.7213 1.99577 18.4537 2.39688 18.2938L47.8562 0.115635C48.1403 0.00129857 48.4516 -0.0270756 48.7516 0.0340375C49.0516 0.0951505 49.3271 0.243058 49.5437 0.459385V0.45626ZM20.7375 31.4688L29.3656 45.025L44.1562 8.05001L20.7375 31.4688ZM41.9469 5.84064L4.97187 20.6313L18.5312 29.2563L41.9469 5.84064Z" fill="black"/>
</svg>
