<svg width="60" height="30" viewBox="0 0 60 30" fill="none" xmlns="http://www.w3.org/2000/svg">
<rect width="60" height="30" rx="15" fill="black"/>
<path d="M26.14 7.46H28.15V17.435H26.14V7.46ZM18.895 19.505H28.495V21.095H18.895V19.505ZM18.895 16.43H20.89V20.15H18.895V16.43ZM20.59 8.33C22.72 8.33 24.355 9.8 24.355 11.855C24.355 13.895 22.72 15.38 20.59 15.38C18.46 15.38 16.81 13.895 16.81 11.855C16.81 9.8 18.46 8.33 20.59 8.33ZM20.59 10.055C19.555 10.055 18.76 10.715 18.76 11.855C18.76 12.98 19.555 13.64 20.59 13.64C21.61 13.64 22.405 12.98 22.405 11.855C22.405 10.715 21.61 10.055 20.59 10.055ZM30.3988 13.85H42.9538V15.425H30.3988V13.85ZM36.6538 16.19C39.6538 16.19 41.4688 17.135 41.4688 18.77C41.4688 20.405 39.6538 21.335 36.6538 21.335C33.6538 21.335 31.8238 20.405 31.8238 18.77C31.8238 17.135 33.6538 16.19 36.6538 16.19ZM36.6538 17.735C34.7938 17.735 33.8488 18.05 33.8488 18.77C33.8488 19.475 34.7938 19.805 36.6538 19.805C38.5138 19.805 39.4588 19.475 39.4588 18.77C39.4588 18.05 38.5138 17.735 36.6538 17.735ZM35.3038 8.87H37.0738V9.215C37.0738 11.285 35.1988 13.01 31.6138 13.325L30.9238 11.78C33.9688 11.51 35.3038 10.295 35.3038 9.215V8.87ZM36.2788 8.87H38.0488V9.215C38.0488 10.295 39.3688 11.51 42.4288 11.78L41.7388 13.325C38.1688 13.01 36.2788 11.3 36.2788 9.215V8.87ZM31.5388 8.09H41.8288V9.665H31.5388V8.09Z" fill="#E9E9E9"/>
</svg>
