<svg width="60" height="30" viewBox="0 0 60 30" fill="none" xmlns="http://www.w3.org/2000/svg">
<rect width="60" height="30" rx="15" fill="black"/>
<path d="M24.04 11.03H27.28V12.635H24.04V11.03ZM26.23 7.46H28.225V17.585H26.23V7.46ZM19.06 19.505H28.54V21.095H19.06V19.505ZM19.06 16.73H21.055V20.45H19.06V16.73ZM19.81 9.275H21.43V10.145C21.43 12.755 20.2 15.17 17.53 16.055L16.525 14.465C18.82 13.715 19.81 11.9 19.81 10.145V9.275ZM20.23 9.275H21.835V10.145C21.835 11.765 22.78 13.49 24.97 14.225L23.995 15.785C21.415 14.93 20.23 12.62 20.23 10.145V9.275ZM17.065 8.39H24.535V9.965H17.065V8.39ZM35.6638 12.365H37.6438V14.855H35.6638V12.365ZM35.6338 7.685H37.3438V8.105C37.3438 10.67 35.3038 12.68 31.7638 13.19L31.0288 11.63C34.1488 11.255 35.6338 9.665 35.6338 8.105V7.685ZM35.9638 7.685H37.6738V8.105C37.6738 9.725 39.1288 11.255 42.2788 11.63L41.5438 13.19C38.0038 12.665 35.9638 10.73 35.9638 8.105V7.685ZM30.3988 14.075H42.9538V15.635H30.3988V14.075ZM36.6538 16.4C39.6688 16.4 41.4688 17.3 41.4688 18.875C41.4688 20.465 39.6688 21.335 36.6538 21.335C33.6388 21.335 31.8238 20.465 31.8238 18.875C31.8238 17.3 33.6388 16.4 36.6538 16.4ZM36.6538 17.9C34.7788 17.9 33.8488 18.2 33.8488 18.875C33.8488 19.55 34.7788 19.85 36.6538 19.85C38.5288 19.85 39.4588 19.55 39.4588 18.875C39.4588 18.2 38.5288 17.9 36.6538 17.9Z" fill="#E9E9E9"/>
</svg>
