<svg width="235" height="235" viewBox="0 0 235 235" fill="none" xmlns="http://www.w3.org/2000/svg">
<circle cx="117.5" cy="117.5" r="116.5" stroke="black" stroke-width="2"/>
<path d="M117.958 117.958C122.828 117.958 127.497 116.024 130.94 112.581C134.383 109.138 136.318 104.468 136.318 99.5989C136.318 94.7297 134.383 90.06 130.94 86.6169C127.497 83.1738 122.828 81.2396 117.958 81.2396C113.089 81.2396 108.419 83.1738 104.976 86.6169C101.533 90.06 99.599 94.7297 99.599 99.5989C99.599 104.468 101.533 109.138 104.976 112.581C108.419 116.024 113.089 117.958 117.958 117.958ZM130.198 99.5989C130.198 102.845 128.908 105.958 126.613 108.254C124.318 110.549 121.204 111.839 117.958 111.839C114.712 111.839 111.599 110.549 109.304 108.254C107.008 105.958 105.719 102.845 105.719 99.5989C105.719 96.3528 107.008 93.2396 109.304 90.9442C111.599 88.6489 114.712 87.3594 117.958 87.3594C121.204 87.3594 124.318 88.6489 126.613 90.9442C128.908 93.2396 130.198 96.3528 130.198 99.5989ZM154.677 148.557C154.677 154.677 148.557 154.677 148.557 154.677H87.3594C87.3594 154.677 81.2396 154.677 81.2396 148.557C81.2396 142.437 87.3594 124.078 117.958 124.078C148.557 124.078 154.677 142.437 154.677 148.557ZM148.557 148.533C148.551 147.027 147.615 142.499 143.466 138.349C139.476 134.359 131.967 130.198 117.958 130.198C103.95 130.198 96.4412 134.359 92.4511 138.349C88.3018 142.499 87.3716 147.027 87.3594 148.533H148.557Z" fill="black"/>
</svg>
