<svg width="108" height="14" viewBox="0 0 108 14" fill="none" xmlns="http://www.w3.org/2000/svg">
<rect x="6.5" y="4" width="6" height="6" stroke="black"/>
<path d="M11.25 6.25479H10.7477C10.718 6.11635 10.666 5.99473 10.5917 5.88993C10.5188 5.78513 10.4297 5.69715 10.3244 5.62599C10.2204 5.55354 10.1049 5.4992 9.97801 5.46297C9.85108 5.42674 9.71875 5.40863 9.58102 5.40863C9.32986 5.40863 9.10233 5.46944 8.89844 5.59106C8.69589 5.71268 8.53453 5.89187 8.41435 6.12865C8.29552 6.36542 8.23611 6.65588 8.23611 7.00004C8.23611 7.3442 8.29552 7.63467 8.41435 7.87144C8.53453 8.10821 8.69589 8.2874 8.89844 8.40902C9.10233 8.53064 9.32986 8.59145 9.58102 8.59145C9.71875 8.59145 9.85108 8.57334 9.97801 8.53711C10.1049 8.50089 10.2204 8.44719 10.3244 8.37603C10.4297 8.30358 10.5188 8.21495 10.5917 8.11015C10.666 8.00405 10.718 7.88243 10.7477 7.74529H11.25C11.2122 7.94842 11.1433 8.1302 11.0434 8.29064C10.9435 8.45107 10.8193 8.58757 10.6707 8.70014C10.5222 8.81141 10.3554 8.89615 10.1704 8.95437C9.98679 9.0126 9.79032 9.04171 9.58102 9.04171C9.22724 9.04171 8.91262 8.9589 8.63715 8.79329C8.36169 8.62768 8.14497 8.3922 7.98698 8.08686C7.82899 7.78152 7.75 7.41924 7.75 7.00004C7.75 6.58084 7.82899 6.21857 7.98698 5.91322C8.14497 5.60788 8.36169 5.3724 8.63715 5.20679C8.91262 5.04118 9.22724 4.95837 9.58102 4.95837C9.79032 4.95837 9.98679 4.98749 10.1704 5.04571C10.3554 5.10393 10.5222 5.18932 10.6707 5.30189C10.8193 5.41316 10.9435 5.54901 11.0434 5.70944C11.1433 5.86858 11.2122 6.05037 11.25 6.25479Z" fill="black"/>
<path d="M23.0398 6.5H22.5114C22.4801 6.34801 22.4254 6.21449 22.3473 6.09943C22.2706 5.98438 22.1768 5.88778 22.0661 5.80966C21.9567 5.73011 21.8352 5.67045 21.7017 5.63068C21.5682 5.59091 21.429 5.57102 21.2841 5.57102C21.0199 5.57102 20.7805 5.63778 20.5661 5.77131C20.353 5.90483 20.1832 6.10156 20.0568 6.36151C19.9318 6.62145 19.8693 6.94034 19.8693 7.31818C19.8693 7.69602 19.9318 8.01491 20.0568 8.27486C20.1832 8.5348 20.353 8.73153 20.5661 8.86506C20.7805 8.99858 21.0199 9.06534 21.2841 9.06534C21.429 9.06534 21.5682 9.04545 21.7017 9.00568C21.8352 8.96591 21.9567 8.90696 22.0661 8.82884C22.1768 8.74929 22.2706 8.65199 22.3473 8.53693C22.4254 8.42045 22.4801 8.28693 22.5114 8.13636H23.0398C23 8.35937 22.9276 8.55895 22.8224 8.73509C22.7173 8.91122 22.5866 9.06108 22.4304 9.18466C22.2741 9.30682 22.0987 9.39986 21.9041 9.46378C21.7109 9.5277 21.5043 9.55966 21.2841 9.55966C20.9119 9.55966 20.581 9.46875 20.2912 9.28693C20.0014 9.10511 19.7734 8.84659 19.6072 8.51136C19.4411 8.17614 19.358 7.77841 19.358 7.31818C19.358 6.85795 19.4411 6.46023 19.6072 6.125C19.7734 5.78977 20.0014 5.53125 20.2912 5.34943C20.581 5.16761 20.9119 5.0767 21.2841 5.0767C21.5043 5.0767 21.7109 5.10866 21.9041 5.17259C22.0987 5.23651 22.2741 5.33026 22.4304 5.45384C22.5866 5.57599 22.7173 5.72514 22.8224 5.90128C22.9276 6.07599 23 6.27557 23.0398 6.5ZM25.155 9.56818C24.8596 9.56818 24.6003 9.49787 24.3773 9.35724C24.1557 9.21662 23.9824 9.01989 23.8574 8.76705C23.7338 8.5142 23.6721 8.21875 23.6721 7.88068C23.6721 7.53977 23.7338 7.24219 23.8574 6.98793C23.9824 6.73366 24.1557 6.53622 24.3773 6.3956C24.6003 6.25497 24.8596 6.18466 25.155 6.18466C25.4505 6.18466 25.709 6.25497 25.9306 6.3956C26.1536 6.53622 26.3269 6.73366 26.4505 6.98793C26.5755 7.24219 26.638 7.53977 26.638 7.88068C26.638 8.21875 26.5755 8.5142 26.4505 8.76705C26.3269 9.01989 26.1536 9.21662 25.9306 9.35724C25.709 9.49787 25.4505 9.56818 25.155 9.56818ZM25.155 9.11648C25.3794 9.11648 25.5641 9.05895 25.709 8.94389C25.8539 8.82884 25.9611 8.67756 26.0307 8.49006C26.1003 8.30256 26.1351 8.09943 26.1351 7.88068C26.1351 7.66193 26.1003 7.4581 26.0307 7.26918C25.9611 7.08026 25.8539 6.92756 25.709 6.81108C25.5641 6.6946 25.3794 6.63636 25.155 6.63636C24.9306 6.63636 24.7459 6.6946 24.601 6.81108C24.4561 6.92756 24.3489 7.08026 24.2793 7.26918C24.2097 7.4581 24.1749 7.66193 24.1749 7.88068C24.1749 8.09943 24.2097 8.30256 24.2793 8.49006C24.3489 8.67756 24.4561 8.82884 24.601 8.94389C24.7459 9.05895 24.9306 9.11648 25.155 9.11648ZM28.7351 9.56818C28.4283 9.56818 28.1641 9.49574 27.9425 9.35085C27.7209 9.20597 27.5504 9.00639 27.4311 8.75213C27.3118 8.49787 27.2521 8.20739 27.2521 7.88068C27.2521 7.5483 27.3132 7.25497 27.4354 7.00071C27.5589 6.74503 27.7308 6.54545 27.951 6.40199C28.1726 6.2571 28.4311 6.18466 28.7266 6.18466C28.9567 6.18466 29.1641 6.22727 29.3487 6.3125C29.5334 6.39773 29.6847 6.51705 29.8026 6.67045C29.9205 6.82386 29.9936 7.00284 30.022 7.20739H29.5192C29.4808 7.05824 29.3956 6.92614 29.2635 6.81108C29.1328 6.6946 28.9567 6.63636 28.7351 6.63636C28.5391 6.63636 28.3672 6.6875 28.2195 6.78977C28.0732 6.89062 27.9588 7.03338 27.8764 7.21804C27.7955 7.40128 27.755 7.61648 27.755 7.86364C27.755 8.11648 27.7947 8.33665 27.8743 8.52415C27.9553 8.71165 28.0689 8.85724 28.2152 8.96094C28.3629 9.06463 28.5362 9.11648 28.7351 9.11648C28.8658 9.11648 28.9844 9.09375 29.0909 9.0483C29.1974 9.00284 29.2876 8.9375 29.3615 8.85227C29.4354 8.76705 29.4879 8.66477 29.5192 8.54545H30.022C29.9936 8.73864 29.9233 8.91264 29.8111 9.06747C29.7003 9.22088 29.5533 9.34304 29.37 9.43395C29.1882 9.52344 28.9766 9.56818 28.7351 9.56818ZM36.0241 6.5H35.4957C35.4645 6.34801 35.4098 6.21449 35.3317 6.09943C35.255 5.98438 35.1612 5.88778 35.0504 5.80966C34.9411 5.73011 34.8196 5.67045 34.6861 5.63068C34.5526 5.59091 34.4134 5.57102 34.2685 5.57102C34.0043 5.57102 33.7649 5.63778 33.5504 5.77131C33.3374 5.90483 33.1676 6.10156 33.0412 6.36151C32.9162 6.62145 32.8537 6.94034 32.8537 7.31818C32.8537 7.69602 32.9162 8.01491 33.0412 8.27486C33.1676 8.5348 33.3374 8.73153 33.5504 8.86506C33.7649 8.99858 34.0043 9.06534 34.2685 9.06534C34.4134 9.06534 34.5526 9.04545 34.6861 9.00568C34.8196 8.96591 34.9411 8.90696 35.0504 8.82884C35.1612 8.74929 35.255 8.65199 35.3317 8.53693C35.4098 8.42045 35.4645 8.28693 35.4957 8.13636H36.0241C35.9844 8.35937 35.9119 8.55895 35.8068 8.73509C35.7017 8.91122 35.571 9.06108 35.4148 9.18466C35.2585 9.30682 35.0831 9.39986 34.8885 9.46378C34.6953 9.5277 34.4886 9.55966 34.2685 9.55966C33.8963 9.55966 33.5653 9.46875 33.2756 9.28693C32.9858 9.10511 32.7578 8.84659 32.5916 8.51136C32.4254 8.17614 32.3423 7.77841 32.3423 7.31818C32.3423 6.85795 32.4254 6.46023 32.5916 6.125C32.7578 5.78977 32.9858 5.53125 33.2756 5.34943C33.5653 5.16761 33.8963 5.0767 34.2685 5.0767C34.4886 5.0767 34.6953 5.10866 34.8885 5.17259C35.0831 5.23651 35.2585 5.33026 35.4148 5.45384C35.571 5.57599 35.7017 5.72514 35.8068 5.90128C35.9119 6.07599 35.9844 6.27557 36.0241 6.5ZM38.1394 9.56818C37.8439 9.56818 37.5847 9.49787 37.3617 9.35724C37.1401 9.21662 36.9668 9.01989 36.8418 8.76705C36.7182 8.5142 36.6564 8.21875 36.6564 7.88068C36.6564 7.53977 36.7182 7.24219 36.8418 6.98793C36.9668 6.73366 37.1401 6.53622 37.3617 6.3956C37.5847 6.25497 37.8439 6.18466 38.1394 6.18466C38.4348 6.18466 38.6934 6.25497 38.915 6.3956C39.138 6.53622 39.3113 6.73366 39.4348 6.98793C39.5598 7.24219 39.6223 7.53977 39.6223 7.88068C39.6223 8.21875 39.5598 8.5142 39.4348 8.76705C39.3113 9.01989 39.138 9.21662 38.915 9.35724C38.6934 9.49787 38.4348 9.56818 38.1394 9.56818ZM38.1394 9.11648C38.3638 9.11648 38.5485 9.05895 38.6934 8.94389C38.8382 8.82884 38.9455 8.67756 39.0151 8.49006C39.0847 8.30256 39.1195 8.09943 39.1195 7.88068C39.1195 7.66193 39.0847 7.4581 39.0151 7.26918C38.9455 7.08026 38.8382 6.92756 38.6934 6.81108C38.5485 6.6946 38.3638 6.63636 38.1394 6.63636C37.915 6.63636 37.7303 6.6946 37.5854 6.81108C37.4405 6.92756 37.3333 7.08026 37.2637 7.26918C37.1941 7.4581 37.1593 7.66193 37.1593 7.88068C37.1593 8.09943 37.1941 8.30256 37.2637 8.49006C37.3333 8.67756 37.4405 8.82884 37.5854 8.94389C37.7303 9.05895 37.915 9.11648 38.1394 9.11648ZM41.7195 9.56818C41.4126 9.56818 41.1484 9.49574 40.9268 9.35085C40.7053 9.20597 40.5348 9.00639 40.4155 8.75213C40.2962 8.49787 40.2365 8.20739 40.2365 7.88068C40.2365 7.5483 40.2976 7.25497 40.4197 7.00071C40.5433 6.74503 40.7152 6.54545 40.9354 6.40199C41.157 6.2571 41.4155 6.18466 41.7109 6.18466C41.9411 6.18466 42.1484 6.22727 42.3331 6.3125C42.5178 6.39773 42.669 6.51705 42.7869 6.67045C42.9048 6.82386 42.978 7.00284 43.0064 7.20739H42.5036C42.4652 7.05824 42.38 6.92614 42.2479 6.81108C42.1172 6.6946 41.9411 6.63636 41.7195 6.63636C41.5234 6.63636 41.3516 6.6875 41.2038 6.78977C41.0575 6.89062 40.9432 7.03338 40.8608 7.21804C40.7798 7.40128 40.7393 7.61648 40.7393 7.86364C40.7393 8.11648 40.7791 8.33665 40.8587 8.52415C40.9396 8.71165 41.0533 8.85724 41.1996 8.96094C41.3473 9.06463 41.5206 9.11648 41.7195 9.11648C41.8501 9.11648 41.9688 9.09375 42.0753 9.0483C42.1818 9.00284 42.272 8.9375 42.3459 8.85227C42.4197 8.76705 42.4723 8.66477 42.5036 8.54545H43.0064C42.978 8.73864 42.9077 8.91264 42.7955 9.06747C42.6847 9.22088 42.5376 9.34304 42.3544 9.43395C42.1726 9.52344 41.9609 9.56818 41.7195 9.56818Z" fill="black"/>
</svg>
