<svg width="110" height="35" viewBox="0 0 110 35" fill="none" xmlns="http://www.w3.org/2000/svg">
<rect x="6.5" y="12" width="11" height="11" stroke="black"/>
<path d="M9.5 21V14H12.014C12.515 14 12.9281 14.0843 13.2535 14.2529C13.5789 14.4193 13.8212 14.6437 13.9803 14.9263C14.1395 15.2065 14.2191 15.5176 14.2191 15.8594C14.2191 16.1602 14.1641 16.4085 14.0541 16.6045C13.9464 16.8005 13.8036 16.9554 13.6257 17.0693C13.4501 17.1833 13.2594 17.2676 13.0534 17.3223V17.3906C13.2734 17.4043 13.4946 17.4795 13.717 17.6162C13.9394 17.7529 14.1255 17.9489 14.2753 18.2041C14.4251 18.4593 14.5 18.7715 14.5 19.1406C14.5 19.4915 14.4181 19.8071 14.2542 20.0874C14.0904 20.3677 13.8317 20.5898 13.4782 20.7539C13.1248 20.918 12.6648 21 12.0983 21H9.5ZM10.3708 20.248H12.0983C12.6671 20.248 13.0709 20.141 13.3097 19.9268C13.5508 19.7103 13.6713 19.4482 13.6713 19.1406C13.6713 18.9036 13.6093 18.6849 13.4853 18.4844C13.3612 18.2816 13.1845 18.1198 12.9551 17.999C12.7257 17.876 12.4541 17.8145 12.1404 17.8145H10.3708V20.248ZM10.3708 17.0762H11.986C12.2481 17.0762 12.4846 17.026 12.6952 16.9258C12.9082 16.8255 13.0768 16.6842 13.2008 16.502C13.3272 16.3197 13.3904 16.1055 13.3904 15.8594C13.3904 15.5518 13.2804 15.2909 13.0604 15.0767C12.8404 14.8602 12.4916 14.752 12.014 14.752H10.3708V17.0762Z" fill="black"/>
<path d="M28.8807 21.5V14.2273H31.4233C31.9299 14.2273 32.3478 14.3149 32.6768 14.4901C33.0059 14.6629 33.2509 14.8961 33.4119 15.1896C33.5729 15.4808 33.6534 15.804 33.6534 16.1591C33.6534 16.4716 33.5978 16.7296 33.4865 16.9332C33.3776 17.1368 33.2332 17.2978 33.0533 17.4162C32.8757 17.5346 32.6828 17.6222 32.4744 17.679V17.75C32.697 17.7642 32.9207 17.8423 33.1456 17.9844C33.3705 18.1264 33.5587 18.33 33.7102 18.5952C33.8617 18.8603 33.9375 19.1847 33.9375 19.5682C33.9375 19.9328 33.8546 20.2607 33.6889 20.5518C33.5232 20.843 33.2616 21.0739 32.9041 21.2443C32.5466 21.4148 32.0814 21.5 31.5085 21.5H28.8807ZM29.7614 20.7188H31.5085C32.0838 20.7188 32.4922 20.6075 32.7337 20.3849C32.9775 20.16 33.0994 19.8878 33.0994 19.5682C33.0994 19.322 33.0367 19.0947 32.9112 18.8864C32.7857 18.6757 32.607 18.5076 32.375 18.3821C32.143 18.2543 31.8684 18.1903 31.5511 18.1903H29.7614V20.7188ZM29.7614 17.4233H31.3949C31.66 17.4233 31.8991 17.3712 32.1122 17.267C32.3277 17.1629 32.4981 17.0161 32.6236 16.8267C32.7514 16.6373 32.8153 16.4148 32.8153 16.1591C32.8153 15.8395 32.7041 15.5684 32.4815 15.3459C32.259 15.121 31.9063 15.0085 31.4233 15.0085H29.7614V17.4233ZM36.8761 21.6278C36.5304 21.6278 36.2167 21.5627 35.935 21.4325C35.6533 21.3 35.4296 21.1094 35.2638 20.8608C35.0981 20.6098 35.0153 20.3068 35.0153 19.9517C35.0153 19.6392 35.0768 19.3859 35.1999 19.1918C35.323 18.9953 35.4876 18.8414 35.6935 18.7301C35.8995 18.6188 36.1268 18.536 36.3754 18.4815C36.6263 18.4247 36.8784 18.3797 37.1317 18.3466C37.4632 18.304 37.7319 18.272 37.9379 18.2507C38.1462 18.227 38.2977 18.188 38.3924 18.1335C38.4895 18.0791 38.538 17.9844 38.538 17.8494V17.821C38.538 17.4706 38.4421 17.1984 38.2504 17.0043C38.061 16.8101 37.7733 16.7131 37.3874 16.7131C36.9873 16.7131 36.6737 16.8007 36.4464 16.9759C36.2191 17.151 36.0593 17.3381 35.967 17.5369L35.1715 17.2528C35.3136 16.9214 35.503 16.6634 35.7397 16.4787C35.9788 16.2917 36.2392 16.1615 36.521 16.0881C36.805 16.0123 37.0844 15.9744 37.359 15.9744C37.5342 15.9744 37.7354 15.9957 37.9627 16.0384C38.1924 16.0786 38.4137 16.1626 38.6268 16.2905C38.8422 16.4183 39.021 16.6113 39.163 16.8693C39.305 17.1274 39.3761 17.473 39.3761 17.9062V21.5H38.538V20.7614H38.4954C38.4386 20.8797 38.3439 21.0064 38.2113 21.1413C38.0787 21.2763 37.9023 21.3911 37.6822 21.4858C37.462 21.5805 37.1933 21.6278 36.8761 21.6278ZM37.0039 20.875C37.3353 20.875 37.6147 20.8099 37.842 20.6797C38.0716 20.5495 38.2444 20.3814 38.3604 20.1754C38.4788 19.9695 38.538 19.7528 38.538 19.5256V18.7585C38.5025 18.8011 38.4244 18.8402 38.3036 18.8757C38.1853 18.9089 38.0479 18.9384 37.8917 18.9645C37.7378 18.9882 37.5875 19.0095 37.4407 19.0284C37.2963 19.045 37.1791 19.0592 37.0891 19.071C36.8713 19.0994 36.6677 19.1456 36.4783 19.2095C36.2913 19.2711 36.1398 19.3646 36.0238 19.4901C35.9102 19.6132 35.8533 19.7812 35.8533 19.9943C35.8533 20.2855 35.9611 20.5057 36.1765 20.6548C36.3943 20.8016 36.6701 20.875 37.0039 20.875ZM40.9057 21.5V16.0455H41.7438V21.5H40.9057ZM41.3319 15.1364C41.1685 15.1364 41.0276 15.0807 40.9093 14.9695C40.7933 14.8582 40.7353 14.7244 40.7353 14.5682C40.7353 14.4119 40.7933 14.2782 40.9093 14.1669C41.0276 14.0556 41.1685 14 41.3319 14C41.4952 14 41.6349 14.0556 41.7509 14.1669C41.8693 14.2782 41.9284 14.4119 41.9284 14.5682C41.9284 14.7244 41.8693 14.8582 41.7509 14.9695C41.6349 15.0807 41.4952 15.1364 41.3319 15.1364ZM45.3384 21.6136C44.8839 21.6136 44.4826 21.4988 44.1346 21.2692C43.7866 21.0372 43.5143 20.7105 43.3178 20.2891C43.1213 19.8653 43.0231 19.3646 43.0231 18.7869C43.0231 18.214 43.1213 17.7169 43.3178 17.2955C43.5143 16.8741 43.7878 16.5485 44.1381 16.3189C44.4885 16.0893 44.8933 15.9744 45.3526 15.9744C45.7077 15.9744 45.9883 16.0336 46.1942 16.152C46.4026 16.268 46.5612 16.4006 46.6701 16.5497C46.7814 16.6965 46.8678 16.8172 46.9293 16.9119H47.0004V14.2273H47.8384V21.5H47.0288V20.6619H46.9293C46.8678 20.7614 46.7802 20.8868 46.6665 21.0384C46.5529 21.1875 46.3907 21.3213 46.18 21.4396C45.9693 21.5556 45.6888 21.6136 45.3384 21.6136ZM45.4521 20.8608C45.7882 20.8608 46.0723 20.7732 46.3043 20.598C46.5363 20.4205 46.7127 20.1754 46.8335 19.8629C46.9542 19.5481 47.0146 19.1847 47.0146 18.7727C47.0146 18.3655 46.9554 18.0092 46.837 17.7038C46.7186 17.3961 46.5434 17.157 46.3114 16.9865C46.0794 16.8137 45.793 16.7273 45.4521 16.7273C45.0969 16.7273 44.801 16.8184 44.5643 17.0007C44.3299 17.1806 44.1535 17.4257 44.0352 17.7358C43.9192 18.0436 43.8612 18.3892 43.8612 18.7727C43.8612 19.161 43.9203 19.5137 44.0387 19.831C44.1594 20.1458 44.337 20.3968 44.5714 20.5838C44.8081 20.7685 45.1017 20.8608 45.4521 20.8608ZM52.9272 19.2699V16.0455H53.7653V21.5H52.9272V20.5767H52.8704C52.7425 20.8537 52.5437 21.0893 52.2738 21.2834C52.0039 21.4751 51.663 21.571 51.2511 21.571C50.9102 21.571 50.6071 21.4964 50.342 21.3473C50.0768 21.1958 49.8685 20.9685 49.717 20.6655C49.5655 20.3601 49.4897 19.9754 49.4897 19.5114V16.0455H50.3278V19.4545C50.3278 19.8523 50.439 20.1695 50.6616 20.4062C50.8865 20.643 51.1729 20.7614 51.521 20.7614C51.7293 20.7614 51.9412 20.7081 52.1566 20.6016C52.3744 20.495 52.5567 20.3317 52.7035 20.1115C52.8526 19.8913 52.9272 19.6108 52.9272 19.2699Z" fill="black"/>
</svg>
