<svg width="110" height="35" viewBox="0 0 110 35" fill="none" xmlns="http://www.w3.org/2000/svg">
<path d="M14.5 14.5V20.5H13.7611L10.3251 15.7891H10.2635V20.5H9.5V14.5H10.2389L13.6872 19.2227H13.7488V14.5H14.5Z" fill="black"/>
<rect x="6.5" y="12" width="11" height="11" stroke="black"/>
<path d="M34.6477 14.2273V21.5H33.7955L29.8324 15.7898H29.7614V21.5H28.8807V14.2273H29.733L33.7102 19.9517H33.7812V14.2273H34.6477ZM37.9015 21.6278C37.5558 21.6278 37.2421 21.5627 36.9604 21.4325C36.6787 21.3 36.455 21.1094 36.2892 20.8608C36.1235 20.6098 36.0407 20.3068 36.0407 19.9517C36.0407 19.6392 36.1022 19.3859 36.2253 19.1918C36.3484 18.9953 36.513 18.8414 36.7189 18.7301C36.9249 18.6188 37.1522 18.536 37.4007 18.4815C37.6517 18.4247 37.9038 18.3797 38.1571 18.3466C38.4886 18.304 38.7573 18.272 38.9632 18.2507C39.1716 18.227 39.3231 18.188 39.4178 18.1335C39.5149 18.0791 39.5634 17.9844 39.5634 17.8494V17.821C39.5634 17.4706 39.4675 17.1984 39.2757 17.0043C39.0864 16.8101 38.7987 16.7131 38.4128 16.7131C38.0127 16.7131 37.699 16.8007 37.4718 16.9759C37.2445 17.151 37.0847 17.3381 36.9924 17.5369L36.1969 17.2528C36.339 16.9214 36.5283 16.6634 36.7651 16.4787C37.0042 16.2917 37.2646 16.1615 37.5463 16.0881C37.8304 16.0123 38.1098 15.9744 38.3844 15.9744C38.5596 15.9744 38.7608 15.9957 38.9881 16.0384C39.2177 16.0786 39.4391 16.1626 39.6522 16.2905C39.8676 16.4183 40.0463 16.6113 40.1884 16.8693C40.3304 17.1274 40.4015 17.473 40.4015 17.9062V21.5H39.5634V20.7614H39.5208C39.464 20.8797 39.3693 21.0064 39.2367 21.1413C39.1041 21.2763 38.9277 21.3911 38.7076 21.4858C38.4874 21.5805 38.2187 21.6278 37.9015 21.6278ZM38.0293 20.875C38.3607 20.875 38.6401 20.8099 38.8674 20.6797C39.097 20.5495 39.2698 20.3814 39.3858 20.1754C39.5042 19.9695 39.5634 19.7528 39.5634 19.5256V18.7585C39.5279 18.8011 39.4498 18.8402 39.329 18.8757C39.2106 18.9089 39.0733 18.9384 38.9171 18.9645C38.7632 18.9882 38.6129 19.0095 38.4661 19.0284C38.3217 19.045 38.2045 19.0592 38.1145 19.071C37.8967 19.0994 37.6931 19.1456 37.5037 19.2095C37.3167 19.2711 37.1652 19.3646 37.0492 19.4901C36.9355 19.6132 36.8787 19.7812 36.8787 19.9943C36.8787 20.2855 36.9864 20.5057 37.2019 20.6548C37.4197 20.8016 37.6955 20.875 38.0293 20.875ZM46.196 16.0455L44.179 21.5H43.3267L41.3097 16.0455H42.2188L43.7244 20.392H43.7812L45.2869 16.0455H46.196ZM49.3938 21.6136C48.8683 21.6136 48.4149 21.4976 48.0337 21.2656C47.6549 21.0312 47.3626 20.7045 47.1566 20.2855C46.953 19.8641 46.8512 19.3741 46.8512 18.8153C46.8512 18.2566 46.953 17.7642 47.1566 17.3381C47.3626 16.9096 47.649 16.5758 48.016 16.3366C48.3853 16.0952 48.8162 15.9744 49.3086 15.9744C49.5927 15.9744 49.8732 16.0218 50.1502 16.1165C50.4272 16.2112 50.6793 16.3651 50.9066 16.5781C51.1339 16.7888 51.315 17.0682 51.4499 17.4162C51.5849 17.7642 51.6523 18.1927 51.6523 18.7017V19.0568H47.4478V18.3324H50.8001C50.8001 18.0246 50.7385 17.75 50.6154 17.5085C50.4947 17.267 50.3219 17.0765 50.0969 16.9368C49.8744 16.7971 49.6116 16.7273 49.3086 16.7273C48.9748 16.7273 48.686 16.8101 48.4421 16.9759C48.2006 17.1392 48.0148 17.3523 47.8846 17.6151C47.7544 17.8778 47.6893 18.1596 47.6893 18.4602V18.9432C47.6893 19.3551 47.7603 19.7043 47.9023 19.9908C48.0468 20.2749 48.2468 20.4915 48.5025 20.6406C48.7582 20.7874 49.0553 20.8608 49.3938 20.8608C49.614 20.8608 49.8129 20.83 49.9904 20.7685C50.1703 20.7045 50.3254 20.6098 50.4556 20.4844C50.5858 20.3565 50.6864 20.1979 50.7575 20.0085L51.5671 20.2358C51.4819 20.5104 51.3387 20.7519 51.1374 20.9602C50.9362 21.1662 50.6876 21.3272 50.3917 21.4432C50.0958 21.5568 49.7631 21.6136 49.3938 21.6136ZM52.9272 21.5V16.0455H53.7369V16.8693H53.7937C53.8931 16.5994 54.073 16.3804 54.3335 16.2124C54.5939 16.0443 54.8874 15.9602 55.2141 15.9602C55.2757 15.9602 55.3526 15.9614 55.445 15.9638C55.5373 15.9661 55.6071 15.9697 55.6545 15.9744V16.8267C55.6261 16.8196 55.561 16.8089 55.4592 16.7947C55.3597 16.7782 55.2544 16.7699 55.1431 16.7699C54.878 16.7699 54.6412 16.8255 54.4329 16.9368C54.2269 17.0457 54.0636 17.1972 53.9428 17.3913C53.8245 17.5831 53.7653 17.8021 53.7653 18.0483V21.5H52.9272Z" fill="black"/>
</svg>
