<svg width="108" height="14" viewBox="0 0 108 14" fill="none" xmlns="http://www.w3.org/2000/svg">
<rect x="6.5" y="4" width="6" height="6" stroke="black"/>
<path d="M8.04163 9.04171V4.95837H9.50815C9.80037 4.95837 10.0414 5.00755 10.2312 5.10592C10.421 5.20295 10.5623 5.33388 10.6552 5.4987C10.748 5.66219 10.7944 5.84363 10.7944 6.04301C10.7944 6.21847 10.7623 6.36335 10.6982 6.47766C10.6354 6.59197 10.5521 6.68236 10.4483 6.74882C10.3459 6.81528 10.2346 6.86446 10.1144 6.89636V6.93624C10.2428 6.94421 10.3718 6.98808 10.5015 7.06783C10.6313 7.14758 10.7398 7.2619 10.8272 7.41077C10.9146 7.55964 10.9583 7.74174 10.9583 7.95707C10.9583 8.16177 10.9105 8.34587 10.8149 8.50936C10.7193 8.67285 10.5684 8.80245 10.3623 8.89815C10.1561 8.99386 9.88776 9.04171 9.55731 9.04171H8.04163ZM8.54958 8.60307H9.55731C9.88912 8.60307 10.1247 8.5406 10.2639 8.41565C10.4046 8.28937 10.4749 8.13652 10.4749 7.95707C10.4749 7.81883 10.4387 7.69123 10.3664 7.57426C10.294 7.45596 10.1909 7.36159 10.0571 7.29114C9.92326 7.21936 9.76486 7.18347 9.58189 7.18347H8.54958V8.60307ZM8.54958 6.75281H9.49177C9.6447 6.75281 9.78261 6.72357 9.90551 6.66508C10.0298 6.60659 10.1281 6.52418 10.2005 6.41785C10.2742 6.31151 10.3111 6.18656 10.3111 6.04301C10.3111 5.86357 10.2469 5.71137 10.1185 5.58643C9.99017 5.46015 9.78671 5.39701 9.50815 5.39701H8.54958V6.75281Z" fill="black"/>
<path d="M19.5284 9.5V5.13636H21.054C21.358 5.13636 21.6087 5.18892 21.8061 5.29403C22.0036 5.39773 22.1506 5.53764 22.2472 5.71378C22.3438 5.88849 22.392 6.08239 22.392 6.29545C22.392 6.48295 22.3587 6.63778 22.2919 6.75994C22.2266 6.8821 22.1399 6.97869 22.032 7.04972C21.9254 7.12074 21.8097 7.1733 21.6847 7.20739V7.25C21.8182 7.25852 21.9524 7.3054 22.0874 7.39062C22.2223 7.47585 22.3352 7.59801 22.4261 7.7571C22.517 7.91619 22.5625 8.1108 22.5625 8.34091C22.5625 8.55966 22.5128 8.75639 22.4134 8.93111C22.3139 9.10582 22.157 9.24432 21.9425 9.34659C21.728 9.44886 21.4489 9.5 21.1051 9.5H19.5284ZM20.0568 9.03125H21.1051C21.4503 9.03125 21.6953 8.96449 21.8402 8.83097C21.9865 8.69602 22.0597 8.53267 22.0597 8.34091C22.0597 8.19318 22.022 8.05682 21.9467 7.93182C21.8714 7.8054 21.7642 7.70455 21.625 7.62926C21.4858 7.55256 21.321 7.5142 21.1307 7.5142H20.0568V9.03125ZM20.0568 7.05398H21.0369C21.196 7.05398 21.3395 7.02273 21.4673 6.96023C21.5966 6.89773 21.6989 6.80966 21.7741 6.69602C21.8509 6.58239 21.8892 6.44886 21.8892 6.29545C21.8892 6.10369 21.8224 5.94105 21.6889 5.80753C21.5554 5.67259 21.3438 5.60511 21.054 5.60511H20.0568V7.05398ZM23.3626 9.5V6.22727H23.8654V9.5H23.3626ZM23.6183 5.68182C23.5202 5.68182 23.4357 5.64844 23.3647 5.58168C23.2951 5.51491 23.2603 5.43466 23.2603 5.34091C23.2603 5.24716 23.2951 5.1669 23.3647 5.10014C23.4357 5.03338 23.5202 5 23.6183 5C23.7163 5 23.8001 5.03338 23.8697 5.10014C23.9407 5.1669 23.9762 5.24716 23.9762 5.34091C23.9762 5.43466 23.9407 5.51491 23.8697 5.58168C23.8001 5.64844 23.7163 5.68182 23.6183 5.68182ZM25.2892 7.53125V9.5H24.7864V6.22727H25.2722V6.73864H25.3148C25.3915 6.57244 25.508 6.43892 25.6642 6.33807C25.8205 6.2358 26.0222 6.18466 26.2694 6.18466C26.4909 6.18466 26.6848 6.23011 26.851 6.32102C27.0172 6.41051 27.1465 6.54688 27.2388 6.73011C27.3311 6.91193 27.3773 7.14205 27.3773 7.42045V9.5H26.8745V7.45455C26.8745 7.19744 26.8077 6.99716 26.6742 6.85369C26.5407 6.70881 26.3574 6.63636 26.1245 6.63636C25.964 6.63636 25.8205 6.67116 25.6941 6.74077C25.5691 6.81037 25.4703 6.91193 25.3979 7.04545C25.3255 7.17898 25.2892 7.34091 25.2892 7.53125ZM29.6172 10.7955C29.3743 10.7955 29.1655 10.7642 28.9908 10.7017C28.8161 10.6406 28.6705 10.5597 28.554 10.4588C28.4389 10.3594 28.3473 10.2528 28.2791 10.1392L28.6797 9.85795C28.7251 9.91761 28.7827 9.9858 28.8523 10.0625C28.9219 10.1406 29.017 10.2081 29.1378 10.2649C29.2599 10.3232 29.4197 10.3523 29.6172 10.3523C29.8814 10.3523 30.0994 10.2884 30.2713 10.1605C30.4432 10.0327 30.5291 9.83239 30.5291 9.55966V8.89489H30.4865C30.4496 8.95455 30.397 9.02841 30.3288 9.11648C30.2621 9.20312 30.1655 9.28054 30.0391 9.34872C29.9141 9.41548 29.745 9.44886 29.532 9.44886C29.2678 9.44886 29.0305 9.38636 28.8203 9.26136C28.6115 9.13636 28.446 8.95455 28.3239 8.71591C28.2031 8.47727 28.1428 8.1875 28.1428 7.84659C28.1428 7.51136 28.2017 7.21946 28.3196 6.97088C28.4375 6.72088 28.6016 6.5277 28.8118 6.39134C29.022 6.25355 29.2649 6.18466 29.5405 6.18466C29.7536 6.18466 29.9226 6.22017 30.0476 6.29119C30.174 6.3608 30.2706 6.44034 30.3374 6.52983C30.4055 6.6179 30.4581 6.69034 30.495 6.74716H30.5462V6.22727H31.032V9.59375C31.032 9.875 30.968 10.1037 30.8402 10.2798C30.7138 10.4574 30.5433 10.5874 30.3288 10.6697C30.1158 10.7536 29.8786 10.7955 29.6172 10.7955ZM29.6001 8.99716C29.8018 8.99716 29.9723 8.95099 30.1115 8.85866C30.2507 8.76634 30.3565 8.63352 30.429 8.46023C30.5014 8.28693 30.5376 8.07955 30.5376 7.83807C30.5376 7.60227 30.5021 7.39418 30.4311 7.21378C30.3601 7.03338 30.255 6.89205 30.1158 6.78977C29.9766 6.6875 29.8047 6.63636 29.6001 6.63636C29.3871 6.63636 29.2095 6.69034 29.0675 6.7983C28.9268 6.90625 28.821 7.05114 28.75 7.23295C28.6804 7.41477 28.6456 7.61648 28.6456 7.83807C28.6456 8.06534 28.6811 8.26634 28.7521 8.44105C28.8246 8.61435 28.9311 8.75071 29.0717 8.85014C29.2138 8.94815 29.3899 8.99716 29.6001 8.99716Z" fill="black"/>
</svg>
