<svg width="110" height="35" viewBox="0 0 110 35" fill="none" xmlns="http://www.w3.org/2000/svg">
<rect x="6.5" y="12" width="11" height="11" stroke="black"/>
<path d="M9 14H9.98611L11.9583 17.2676H12.0417L14.0139 14H15L12.4306 18.1152V21H11.5694V18.1152L9 14Z" fill="black"/>
<path d="M28.2557 14.2273H29.2642L31.2812 17.6222H31.3665L33.3835 14.2273H34.392L31.7642 18.5028V21.5H30.8835V18.5028L28.2557 14.2273ZM36.3097 21.6278C35.964 21.6278 35.6503 21.5627 35.3686 21.4325C35.0869 21.3 34.8632 21.1094 34.6974 20.8608C34.5317 20.6098 34.4489 20.3068 34.4489 19.9517C34.4489 19.6392 34.5104 19.3859 34.6335 19.1918C34.7566 18.9953 34.9212 18.8414 35.1271 18.7301C35.3331 18.6188 35.5604 18.536 35.8089 18.4815C36.0599 18.4247 36.312 18.3797 36.5653 18.3466C36.8968 18.304 37.1655 18.272 37.3714 18.2507C37.5798 18.227 37.7313 18.188 37.826 18.1335C37.9231 18.0791 37.9716 17.9844 37.9716 17.8494V17.821C37.9716 17.4706 37.8757 17.1984 37.6839 17.0043C37.4946 16.8101 37.2069 16.7131 36.821 16.7131C36.4209 16.7131 36.1072 16.8007 35.88 16.9759C35.6527 17.151 35.4929 17.3381 35.4006 17.5369L34.6051 17.2528C34.7472 16.9214 34.9366 16.6634 35.1733 16.4787C35.4124 16.2917 35.6728 16.1615 35.9545 16.0881C36.2386 16.0123 36.518 15.9744 36.7926 15.9744C36.9678 15.9744 37.169 15.9957 37.3963 16.0384C37.6259 16.0786 37.8473 16.1626 38.0604 16.2905C38.2758 16.4183 38.4545 16.6113 38.5966 16.8693C38.7386 17.1274 38.8097 17.473 38.8097 17.9062V21.5H37.9716V20.7614H37.929C37.8722 20.8797 37.7775 21.0064 37.6449 21.1413C37.5123 21.2763 37.3359 21.3911 37.1158 21.4858C36.8956 21.5805 36.6269 21.6278 36.3097 21.6278ZM36.4375 20.875C36.7689 20.875 37.0483 20.8099 37.2756 20.6797C37.5052 20.5495 37.678 20.3814 37.794 20.1754C37.9124 19.9695 37.9716 19.7528 37.9716 19.5256V18.7585C37.9361 18.8011 37.858 18.8402 37.7372 18.8757C37.6188 18.9089 37.4815 18.9384 37.3253 18.9645C37.1714 18.9882 37.0211 19.0095 36.8743 19.0284C36.7299 19.045 36.6127 19.0592 36.5227 19.071C36.3049 19.0994 36.1013 19.1456 35.9119 19.2095C35.7249 19.2711 35.5734 19.3646 35.4574 19.4901C35.3438 19.6132 35.2869 19.7812 35.2869 19.9943C35.2869 20.2855 35.3946 20.5057 35.6101 20.6548C35.8279 20.8016 36.1037 20.875 36.4375 20.875ZM41.1774 18.2188V21.5H40.3393V16.0455H41.149V16.8977H41.22C41.3478 16.6207 41.542 16.3982 41.8024 16.2301C42.0628 16.0597 42.399 15.9744 42.8109 15.9744C43.1802 15.9744 43.5034 16.0502 43.7804 16.2017C44.0574 16.3509 44.2728 16.5781 44.4267 16.8835C44.5806 17.1866 44.6575 17.5701 44.6575 18.0341V21.5H43.8194V18.0909C43.8194 17.6624 43.7082 17.3286 43.4856 17.0895C43.2631 16.848 42.9577 16.7273 42.5694 16.7273C42.3019 16.7273 42.0628 16.7853 41.8521 16.9013C41.6438 17.0173 41.4792 17.1866 41.3585 17.4091C41.2377 17.6316 41.1774 17.9015 41.1774 18.2188ZM48.2486 21.6136C47.794 21.6136 47.3928 21.4988 47.0447 21.2692C46.6967 21.0372 46.4245 20.7105 46.228 20.2891C46.0315 19.8653 45.9332 19.3646 45.9332 18.7869C45.9332 18.214 46.0315 17.7169 46.228 17.2955C46.4245 16.8741 46.6979 16.5485 47.0483 16.3189C47.3987 16.0893 47.8035 15.9744 48.2628 15.9744C48.6179 15.9744 48.8984 16.0336 49.1044 16.152C49.3127 16.268 49.4714 16.4006 49.5803 16.5497C49.6915 16.6965 49.7779 16.8172 49.8395 16.9119H49.9105V14.2273H50.7486V21.5H49.9389V20.6619H49.8395C49.7779 20.7614 49.6903 20.8868 49.5767 21.0384C49.4631 21.1875 49.3009 21.3213 49.0902 21.4396C48.8795 21.5556 48.599 21.6136 48.2486 21.6136ZM48.3622 20.8608C48.6984 20.8608 48.9825 20.7732 49.2145 20.598C49.4465 20.4205 49.6229 20.1754 49.7436 19.8629C49.8643 19.5481 49.9247 19.1847 49.9247 18.7727C49.9247 18.3655 49.8655 18.0092 49.7472 17.7038C49.6288 17.3961 49.4536 17.157 49.2216 16.9865C48.9896 16.8137 48.7031 16.7273 48.3622 16.7273C48.0071 16.7273 47.7112 16.8184 47.4744 17.0007C47.2401 17.1806 47.0637 17.4257 46.9453 17.7358C46.8293 18.0436 46.7713 18.3892 46.7713 18.7727C46.7713 19.161 46.8305 19.5137 46.9489 19.831C47.0696 20.1458 47.2472 20.3968 47.4815 20.5838C47.7183 20.7685 48.0118 20.8608 48.3622 20.8608ZM54.6868 21.6136C54.1612 21.6136 53.7079 21.4976 53.3267 21.2656C52.9479 21.0312 52.6555 20.7045 52.4496 20.2855C52.246 19.8641 52.1442 19.3741 52.1442 18.8153C52.1442 18.2566 52.246 17.7642 52.4496 17.3381C52.6555 16.9096 52.942 16.5758 53.3089 16.3366C53.6783 16.0952 54.1091 15.9744 54.6016 15.9744C54.8857 15.9744 55.1662 16.0218 55.4432 16.1165C55.7202 16.2112 55.9723 16.3651 56.1996 16.5781C56.4268 16.7888 56.608 17.0682 56.7429 17.4162C56.8778 17.7642 56.9453 18.1927 56.9453 18.7017V19.0568H52.7408V18.3324H56.093C56.093 18.0246 56.0315 17.75 55.9084 17.5085C55.7876 17.267 55.6148 17.0765 55.3899 16.9368C55.1674 16.7971 54.9046 16.7273 54.6016 16.7273C54.2678 16.7273 53.9789 16.8101 53.7351 16.9759C53.4936 17.1392 53.3078 17.3523 53.1776 17.6151C53.0473 17.8778 52.9822 18.1596 52.9822 18.4602V18.9432C52.9822 19.3551 53.0533 19.7043 53.1953 19.9908C53.3397 20.2749 53.5398 20.4915 53.7955 20.6406C54.0511 20.7874 54.3482 20.8608 54.6868 20.8608C54.907 20.8608 55.1058 20.83 55.2834 20.7685C55.4633 20.7045 55.6184 20.6098 55.7486 20.4844C55.8788 20.3565 55.9794 20.1979 56.0504 20.0085L56.8601 20.2358C56.7749 20.5104 56.6316 20.7519 56.4304 20.9602C56.2292 21.1662 55.9806 21.3272 55.6847 21.4432C55.3887 21.5568 55.0561 21.6136 54.6868 21.6136ZM58.6987 16.0455L60.0055 18.2756L61.3123 16.0455H62.2782L60.5169 18.7727L62.2782 21.5H61.3123L60.0055 19.3835L58.6987 21.5H57.7328L59.4657 18.7727L57.7328 16.0455H58.6987Z" fill="black"/>
</svg>
