<svg width="110" height="35" viewBox="0 0 110 35" fill="none" xmlns="http://www.w3.org/2000/svg">
<rect x="6.5" y="12" width="11" height="11" stroke="black"/>
<path d="M9.5 21V14H10.3179V17.4727H10.3971L13.4314 14H14.5L11.6636 17.1582L14.5 21H13.5106L11.1623 17.7461L10.3179 18.7305V21H9.5Z" fill="black"/>
<path d="M28.8807 21.5V14.2273H29.7614V17.8352H29.8466L33.1136 14.2273H34.2642L31.2102 17.5085L34.2642 21.5H33.1989L30.6705 18.1193L29.7614 19.142V21.5H28.8807ZM36.8956 21.6278C36.55 21.6278 36.2363 21.5627 35.9545 21.4325C35.6728 21.3 35.4491 21.1094 35.2834 20.8608C35.1177 20.6098 35.0348 20.3068 35.0348 19.9517C35.0348 19.6392 35.0964 19.3859 35.2195 19.1918C35.3426 18.9953 35.5071 18.8414 35.7131 18.7301C35.919 18.6188 36.1463 18.536 36.3949 18.4815C36.6458 18.4247 36.898 18.3797 37.1513 18.3466C37.4827 18.304 37.7514 18.272 37.9574 18.2507C38.1657 18.227 38.3172 18.188 38.4119 18.1335C38.509 18.0791 38.5575 17.9844 38.5575 17.8494V17.821C38.5575 17.4706 38.4616 17.1984 38.2699 17.0043C38.0805 16.8101 37.7929 16.7131 37.407 16.7131C37.0069 16.7131 36.6932 16.8007 36.4659 16.9759C36.2386 17.151 36.0788 17.3381 35.9865 17.5369L35.1911 17.2528C35.3331 16.9214 35.5225 16.6634 35.7592 16.4787C35.9983 16.2917 36.2588 16.1615 36.5405 16.0881C36.8246 16.0123 37.1039 15.9744 37.3786 15.9744C37.5537 15.9744 37.755 15.9957 37.9822 16.0384C38.2119 16.0786 38.4332 16.1626 38.6463 16.2905C38.8617 16.4183 39.0405 16.6113 39.1825 16.8693C39.3246 17.1274 39.3956 17.473 39.3956 17.9062V21.5H38.5575V20.7614H38.5149C38.4581 20.8797 38.3634 21.0064 38.2308 21.1413C38.0982 21.2763 37.9219 21.3911 37.7017 21.4858C37.4815 21.5805 37.2128 21.6278 36.8956 21.6278ZM37.0234 20.875C37.3549 20.875 37.6342 20.8099 37.8615 20.6797C38.0911 20.5495 38.264 20.3814 38.38 20.1754C38.4983 19.9695 38.5575 19.7528 38.5575 19.5256V18.7585C38.522 18.8011 38.4439 18.8402 38.3232 18.8757C38.2048 18.9089 38.0675 18.9384 37.9112 18.9645C37.7573 18.9882 37.607 19.0095 37.4602 19.0284C37.3158 19.045 37.1986 19.0592 37.1087 19.071C36.8909 19.0994 36.6873 19.1456 36.4979 19.2095C36.3108 19.2711 36.1593 19.3646 36.0433 19.4901C35.9297 19.6132 35.8729 19.7812 35.8729 19.9943C35.8729 20.2855 35.9806 20.5057 36.196 20.6548C36.4138 20.8016 36.6896 20.875 37.0234 20.875ZM41.7065 19.5114L41.6923 18.4744H41.8627L44.2491 16.0455H45.286L42.7434 18.6165H42.6724L41.7065 19.5114ZM40.9252 21.5V14.2273H41.7633V21.5H40.9252ZM44.3912 21.5L42.2605 18.8011L42.8571 18.2188L45.4565 21.5H44.3912ZM47.9698 21.6278C47.6242 21.6278 47.3105 21.5627 47.0288 21.4325C46.747 21.3 46.5233 21.1094 46.3576 20.8608C46.1919 20.6098 46.109 20.3068 46.109 19.9517C46.109 19.6392 46.1706 19.3859 46.2937 19.1918C46.4168 18.9953 46.5813 18.8414 46.7873 18.7301C46.9933 18.6188 47.2205 18.536 47.4691 18.4815C47.7201 18.4247 47.9722 18.3797 48.2255 18.3466C48.5569 18.304 48.8256 18.272 49.0316 18.2507C49.2399 18.227 49.3915 18.188 49.4862 18.1335C49.5832 18.0791 49.6317 17.9844 49.6317 17.8494V17.821C49.6317 17.4706 49.5359 17.1984 49.3441 17.0043C49.1547 16.8101 48.8671 16.7131 48.4812 16.7131C48.0811 16.7131 47.7674 16.8007 47.5401 16.9759C47.3129 17.151 47.1531 17.3381 47.0607 17.5369L46.2653 17.2528C46.4073 16.9214 46.5967 16.6634 46.8335 16.4787C47.0726 16.2917 47.333 16.1615 47.6147 16.0881C47.8988 16.0123 48.1781 15.9744 48.4528 15.9744C48.628 15.9744 48.8292 15.9957 49.0565 16.0384C49.2861 16.0786 49.5075 16.1626 49.7205 16.2905C49.936 16.4183 50.1147 16.6113 50.2567 16.8693C50.3988 17.1274 50.4698 17.473 50.4698 17.9062V21.5H49.6317V20.7614H49.5891C49.5323 20.8797 49.4376 21.0064 49.305 21.1413C49.1725 21.2763 48.9961 21.3911 48.7759 21.4858C48.5558 21.5805 48.2871 21.6278 47.9698 21.6278ZM48.0977 20.875C48.4291 20.875 48.7085 20.8099 48.9357 20.6797C49.1654 20.5495 49.3382 20.3814 49.4542 20.1754C49.5726 19.9695 49.6317 19.7528 49.6317 19.5256V18.7585C49.5962 18.8011 49.5181 18.8402 49.3974 18.8757C49.279 18.9089 49.1417 18.9384 48.9854 18.9645C48.8316 18.9882 48.6812 19.0095 48.5344 19.0284C48.39 19.045 48.2728 19.0592 48.1829 19.071C47.9651 19.0994 47.7615 19.1456 47.5721 19.2095C47.3851 19.2711 47.2335 19.3646 47.1175 19.4901C47.0039 19.6132 46.9471 19.7812 46.9471 19.9943C46.9471 20.2855 47.0548 20.5057 47.2702 20.6548C47.488 20.8016 47.7638 20.875 48.0977 20.875ZM54.2154 21.6136C53.723 21.6136 53.2909 21.4964 52.9192 21.2621C52.5499 21.0277 52.2611 20.6998 52.0527 20.2784C51.8468 19.857 51.7438 19.3646 51.7438 18.8011C51.7438 18.233 51.8468 17.737 52.0527 17.3132C52.2611 16.8894 52.5499 16.5604 52.9192 16.326C53.2909 16.0916 53.723 15.9744 54.2154 15.9744C54.7078 15.9744 55.1387 16.0916 55.508 16.326C55.8797 16.5604 56.1685 16.8894 56.3745 17.3132C56.5828 17.737 56.687 18.233 56.687 18.8011C56.687 19.3646 56.5828 19.857 56.3745 20.2784C56.1685 20.6998 55.8797 21.0277 55.508 21.2621C55.1387 21.4964 54.7078 21.6136 54.2154 21.6136ZM54.2154 20.8608C54.5894 20.8608 54.8972 20.7649 55.1387 20.5732C55.3801 20.3814 55.5589 20.1293 55.6749 19.8168C55.7909 19.5043 55.8489 19.1657 55.8489 18.8011C55.8489 18.4366 55.7909 18.0968 55.6749 17.782C55.5589 17.4671 55.3801 17.2126 55.1387 17.0185C54.8972 16.8243 54.5894 16.7273 54.2154 16.7273C53.8413 16.7273 53.5336 16.8243 53.2921 17.0185C53.0506 17.2126 52.8719 17.4671 52.7559 17.782C52.6399 18.0968 52.5819 18.4366 52.5819 18.8011C52.5819 19.1657 52.6399 19.5043 52.7559 19.8168C52.8719 20.1293 53.0506 20.3814 53.2921 20.5732C53.5336 20.7649 53.8413 20.8608 54.2154 20.8608Z" fill="black"/>
</svg>
