<svg width="110" height="35" viewBox="0 0 110 35" fill="none" xmlns="http://www.w3.org/2000/svg">
<rect x="6.5" y="12" width="11" height="11" stroke="black"/>
<path d="M9.5 21V14H12.014C12.515 14 12.9281 14.0843 13.2535 14.2529C13.5789 14.4193 13.8212 14.6437 13.9803 14.9263C14.1395 15.2065 14.2191 15.5176 14.2191 15.8594C14.2191 16.1602 14.1641 16.4085 14.0541 16.6045C13.9464 16.8005 13.8036 16.9554 13.6257 17.0693C13.4501 17.1833 13.2594 17.2676 13.0534 17.3223V17.3906C13.2734 17.4043 13.4946 17.4795 13.717 17.6162C13.9394 17.7529 14.1255 17.9489 14.2753 18.2041C14.4251 18.4593 14.5 18.7715 14.5 19.1406C14.5 19.4915 14.4181 19.8071 14.2542 20.0874C14.0904 20.3677 13.8317 20.5898 13.4782 20.7539C13.1248 20.918 12.6648 21 12.0983 21H9.5ZM10.3708 20.248H12.0983C12.6671 20.248 13.0709 20.141 13.3097 19.9268C13.5508 19.7103 13.6713 19.4482 13.6713 19.1406C13.6713 18.9036 13.6093 18.6849 13.4853 18.4844C13.3612 18.2816 13.1845 18.1198 12.9551 17.999C12.7257 17.876 12.4541 17.8145 12.1404 17.8145H10.3708V20.248ZM10.3708 17.0762H11.986C12.2481 17.0762 12.4846 17.026 12.6952 16.9258C12.9082 16.8255 13.0768 16.6842 13.2008 16.502C13.3272 16.3197 13.3904 16.1055 13.3904 15.8594C13.3904 15.5518 13.2804 15.2909 13.0604 15.0767C12.8404 14.8602 12.4916 14.752 12.014 14.752H10.3708V17.0762Z" fill="black"/>
<path d="M28.8807 21.5V14.2273H31.4233C31.9299 14.2273 32.3478 14.3149 32.6768 14.4901C33.0059 14.6629 33.2509 14.8961 33.4119 15.1896C33.5729 15.4808 33.6534 15.804 33.6534 16.1591C33.6534 16.4716 33.5978 16.7296 33.4865 16.9332C33.3776 17.1368 33.2332 17.2978 33.0533 17.4162C32.8757 17.5346 32.6828 17.6222 32.4744 17.679V17.75C32.697 17.7642 32.9207 17.8423 33.1456 17.9844C33.3705 18.1264 33.5587 18.33 33.7102 18.5952C33.8617 18.8603 33.9375 19.1847 33.9375 19.5682C33.9375 19.9328 33.8546 20.2607 33.6889 20.5518C33.5232 20.843 33.2616 21.0739 32.9041 21.2443C32.5466 21.4148 32.0814 21.5 31.5085 21.5H28.8807ZM29.7614 20.7188H31.5085C32.0838 20.7188 32.4922 20.6075 32.7337 20.3849C32.9775 20.16 33.0994 19.8878 33.0994 19.5682C33.0994 19.322 33.0367 19.0947 32.9112 18.8864C32.7857 18.6757 32.607 18.5076 32.375 18.3821C32.143 18.2543 31.8684 18.1903 31.5511 18.1903H29.7614V20.7188ZM29.7614 17.4233H31.3949C31.66 17.4233 31.8991 17.3712 32.1122 17.267C32.3277 17.1629 32.4981 17.0161 32.6236 16.8267C32.7514 16.6373 32.8153 16.4148 32.8153 16.1591C32.8153 15.8395 32.7041 15.5684 32.4815 15.3459C32.259 15.121 31.9063 15.0085 31.4233 15.0085H29.7614V17.4233ZM35.271 21.5V16.0455H36.109V21.5H35.271ZM35.6971 15.1364C35.5337 15.1364 35.3929 15.0807 35.2745 14.9695C35.1585 14.8582 35.1005 14.7244 35.1005 14.5682C35.1005 14.4119 35.1585 14.2782 35.2745 14.1669C35.3929 14.0556 35.5337 14 35.6971 14C35.8604 14 36.0001 14.0556 36.1161 14.1669C36.2345 14.2782 36.2937 14.4119 36.2937 14.5682C36.2937 14.7244 36.2345 14.8582 36.1161 14.9695C36.0001 15.0807 35.8604 15.1364 35.6971 15.1364ZM38.4821 18.2188V21.5H37.644V16.0455H38.4537V16.8977H38.5247C38.6525 16.6207 38.8467 16.3982 39.1071 16.2301C39.3675 16.0597 39.7037 15.9744 40.1156 15.9744C40.4849 15.9744 40.8081 16.0502 41.085 16.2017C41.362 16.3509 41.5775 16.5781 41.7314 16.8835C41.8852 17.1866 41.9622 17.5701 41.9622 18.0341V21.5H41.1241V18.0909C41.1241 17.6624 41.0128 17.3286 40.7903 17.0895C40.5678 16.848 40.2624 16.7273 39.8741 16.7273C39.6066 16.7273 39.3675 16.7853 39.1568 16.9013C38.9484 17.0173 38.7839 17.1866 38.6632 17.4091C38.5424 17.6316 38.4821 17.9015 38.4821 18.2188ZM45.6953 23.6591C45.2905 23.6591 44.9425 23.607 44.6513 23.5028C44.3601 23.401 44.1174 23.2661 43.9233 23.098C43.7315 22.9323 43.5788 22.7547 43.4652 22.5653L44.1328 22.0966C44.2086 22.196 44.3045 22.3097 44.4205 22.4375C44.5365 22.5677 44.6951 22.6802 44.8963 22.7749C45.0999 22.8719 45.3662 22.9205 45.6953 22.9205C46.1357 22.9205 46.4991 22.8139 46.7855 22.6009C47.072 22.3878 47.2152 22.054 47.2152 21.5994V20.4915H47.1442C47.0826 20.5909 46.995 20.714 46.8814 20.8608C46.7701 21.0052 46.6091 21.1342 46.3984 21.2479C46.1901 21.3591 45.9084 21.4148 45.5533 21.4148C45.1129 21.4148 44.7176 21.3106 44.3672 21.1023C44.0192 20.8939 43.7434 20.5909 43.5398 20.1932C43.3385 19.7955 43.2379 19.3125 43.2379 18.7443C43.2379 18.1856 43.3362 17.6991 43.5327 17.2848C43.7292 16.8681 44.0026 16.5462 44.353 16.3189C44.7034 16.0893 45.1082 15.9744 45.5675 15.9744C45.9226 15.9744 46.2043 16.0336 46.4126 16.152C46.6233 16.268 46.7843 16.4006 46.8956 16.5497C47.0092 16.6965 47.0968 16.8172 47.1584 16.9119H47.2436V16.0455H48.0533V21.6562C48.0533 22.125 47.9467 22.5062 47.7337 22.7997C47.523 23.0956 47.2389 23.3123 46.8814 23.4496C46.5263 23.5893 46.1309 23.6591 45.6953 23.6591ZM45.6669 20.6619C46.0031 20.6619 46.2872 20.585 46.5192 20.4311C46.7512 20.2772 46.9276 20.0559 47.0483 19.767C47.169 19.4782 47.2294 19.1326 47.2294 18.7301C47.2294 18.3371 47.1702 17.9903 47.0518 17.6896C46.9335 17.389 46.7583 17.1534 46.5263 16.983C46.2943 16.8125 46.0078 16.7273 45.6669 16.7273C45.3118 16.7273 45.0159 16.8172 44.7791 16.9972C44.5447 17.1771 44.3684 17.4186 44.25 17.7216C44.134 18.0246 44.076 18.3608 44.076 18.7301C44.076 19.1089 44.1352 19.4439 44.2536 19.7351C44.3743 20.0239 44.5518 20.2512 44.7862 20.4169C45.023 20.5803 45.3165 20.6619 45.6669 20.6619Z" fill="black"/>
</svg>
