<svg width="108" height="14" viewBox="0 0 108 14" fill="none" xmlns="http://www.w3.org/2000/svg">
<rect x="6.5" y="4" width="6" height="6" stroke="black"/>
<path d="M9.30067 9.04171H7.92505V4.95837H9.36162C9.79404 4.95837 10.1641 5.04012 10.4717 5.20361C10.7793 5.36578 11.0151 5.59905 11.1791 5.90344C11.3431 6.2065 11.425 6.56938 11.425 6.99207C11.425 7.41741 11.3423 7.78361 11.1769 8.09066C11.0115 8.39638 10.7706 8.63165 10.4543 8.79647C10.1379 8.95996 9.75341 9.04171 9.30067 9.04171ZM8.46485 8.60307H9.26584C9.63442 8.60307 9.93987 8.53794 10.1822 8.40767C10.4245 8.27741 10.6052 8.09199 10.7242 7.8514C10.8432 7.61081 10.9027 7.32437 10.9027 6.99207C10.9027 6.66242 10.8439 6.37864 10.7264 6.14071C10.6088 5.90145 10.4332 5.71802 10.1996 5.59041C9.96599 5.46148 9.67505 5.39701 9.32679 5.39701H8.46485V8.60307Z" fill="black"/>
<path d="M20.875 9.5H19.5284V5.13636H20.9347C21.358 5.13636 21.7202 5.22372 22.0213 5.39844C22.3224 5.57173 22.5533 5.82102 22.7138 6.14631C22.8743 6.47017 22.9545 6.85795 22.9545 7.30966C22.9545 7.7642 22.8736 8.15554 22.7116 8.48366C22.5497 8.81037 22.3139 9.06179 22.0043 9.23793C21.6946 9.41264 21.3182 9.5 20.875 9.5ZM20.0568 9.03125H20.8409C21.2017 9.03125 21.5007 8.96165 21.7379 8.82244C21.9751 8.68324 22.152 8.48509 22.2685 8.22798C22.3849 7.97088 22.4432 7.66477 22.4432 7.30966C22.4432 6.95739 22.3857 6.65412 22.2706 6.39986C22.1555 6.14418 21.9837 5.94815 21.755 5.81179C21.5263 5.67401 21.2415 5.60511 20.9006 5.60511H20.0568V9.03125ZM25.8352 8.16193V6.22727H26.3381V9.5H25.8352V8.94602H25.8011C25.7244 9.11222 25.6051 9.25355 25.4432 9.37003C25.2813 9.48509 25.0767 9.54261 24.8295 9.54261C24.625 9.54261 24.4432 9.49787 24.2841 9.40838C24.125 9.31747 24 9.18111 23.9091 8.99929C23.8182 8.81605 23.7727 8.58523 23.7727 8.30682V6.22727H24.2756V8.27273C24.2756 8.51136 24.3423 8.7017 24.4759 8.84375C24.6108 8.9858 24.7827 9.05682 24.9915 9.05682C25.1165 9.05682 25.2436 9.02486 25.3729 8.96094C25.5036 8.89702 25.6129 8.79901 25.701 8.6669C25.7905 8.5348 25.8352 8.36648 25.8352 8.16193ZM28.5886 9.56818C28.2818 9.56818 28.0176 9.49574 27.796 9.35085C27.5744 9.20597 27.4039 9.00639 27.2846 8.75213C27.1653 8.49787 27.1056 8.20739 27.1056 7.88068C27.1056 7.5483 27.1667 7.25497 27.2889 7.00071C27.4125 6.74503 27.5843 6.54545 27.8045 6.40199C28.0261 6.2571 28.2846 6.18466 28.5801 6.18466C28.8102 6.18466 29.0176 6.22727 29.2022 6.3125C29.3869 6.39773 29.5382 6.51705 29.6561 6.67045C29.774 6.82386 29.8471 7.00284 29.8755 7.20739H29.3727C29.3343 7.05824 29.2491 6.92614 29.117 6.81108C28.9863 6.6946 28.8102 6.63636 28.5886 6.63636C28.3926 6.63636 28.2207 6.6875 28.073 6.78977C27.9267 6.89062 27.8123 7.03338 27.7299 7.21804C27.649 7.40128 27.6085 7.61648 27.6085 7.86364C27.6085 8.11648 27.6483 8.33665 27.7278 8.52415C27.8088 8.71165 27.9224 8.85724 28.0687 8.96094C28.2164 9.06463 28.3897 9.11648 28.5886 9.11648C28.7193 9.11648 28.8379 9.09375 28.9444 9.0483C29.051 9.00284 29.1412 8.9375 29.215 8.85227C29.2889 8.76705 29.3414 8.66477 29.3727 8.54545H29.8755C29.8471 8.73864 29.7768 8.91264 29.6646 9.06747C29.5538 9.22088 29.4068 9.34304 29.2235 9.43395C29.0417 9.52344 28.8301 9.56818 28.5886 9.56818ZM31.0794 8.30682L31.0708 7.68466H31.1731L32.6049 6.22727H33.2271L31.7015 7.76989H31.6589L31.0794 8.30682ZM30.6106 9.5V5.13636H31.1135V9.5H30.6106ZM32.6902 9.5L31.4118 7.88068L31.7697 7.53125L33.3294 9.5H32.6902ZM35.2891 9.5H33.9425V5.13636H35.3487C35.772 5.13636 36.1342 5.22372 36.4354 5.39844C36.7365 5.57173 36.9673 5.82102 37.1278 6.14631C37.2884 6.47017 37.3686 6.85795 37.3686 7.30966C37.3686 7.7642 37.2876 8.15554 37.1257 8.48366C36.9638 8.81037 36.728 9.06179 36.4183 9.23793C36.1087 9.41264 35.7322 9.5 35.2891 9.5ZM34.4709 9.03125H35.255C35.6158 9.03125 35.9148 8.96165 36.152 8.82244C36.3892 8.68324 36.5661 8.48509 36.6825 8.22798C36.799 7.97088 36.8572 7.66477 36.8572 7.30966C36.8572 6.95739 36.7997 6.65412 36.6847 6.39986C36.5696 6.14418 36.3977 5.94815 36.169 5.81179C35.9403 5.67401 35.6555 5.60511 35.3146 5.60511H34.4709V9.03125ZM40.2493 8.16193V6.22727H40.7521V9.5H40.2493V8.94602H40.2152C40.1385 9.11222 40.0192 9.25355 39.8572 9.37003C39.6953 9.48509 39.4908 9.54261 39.2436 9.54261C39.0391 9.54261 38.8572 9.49787 38.6982 9.40838C38.5391 9.31747 38.4141 9.18111 38.3232 8.99929C38.2322 8.81605 38.1868 8.58523 38.1868 8.30682V6.22727H38.6896V8.27273C38.6896 8.51136 38.7564 8.7017 38.8899 8.84375C39.0249 8.9858 39.1967 9.05682 39.4055 9.05682C39.5305 9.05682 39.6577 9.02486 39.7869 8.96094C39.9176 8.89702 40.027 8.79901 40.1151 8.6669C40.2045 8.5348 40.2493 8.36648 40.2493 8.16193ZM43.0027 9.56818C42.6958 9.56818 42.4316 9.49574 42.21 9.35085C41.9885 9.20597 41.818 9.00639 41.6987 8.75213C41.5794 8.49787 41.5197 8.20739 41.5197 7.88068C41.5197 7.5483 41.5808 7.25497 41.7029 7.00071C41.8265 6.74503 41.9984 6.54545 42.2186 6.40199C42.4402 6.2571 42.6987 6.18466 42.9941 6.18466C43.2243 6.18466 43.4316 6.22727 43.6163 6.3125C43.801 6.39773 43.9522 6.51705 44.0701 6.67045C44.188 6.82386 44.2612 7.00284 44.2896 7.20739H43.7868C43.7484 7.05824 43.6632 6.92614 43.5311 6.81108C43.4004 6.6946 43.2243 6.63636 43.0027 6.63636C42.8066 6.63636 42.6348 6.6875 42.487 6.78977C42.3407 6.89062 42.2264 7.03338 42.144 7.21804C42.063 7.40128 42.0225 7.61648 42.0225 7.86364C42.0225 8.11648 42.0623 8.33665 42.1419 8.52415C42.2228 8.71165 42.3365 8.85724 42.4828 8.96094C42.6305 9.06463 42.8038 9.11648 43.0027 9.11648C43.1333 9.11648 43.252 9.09375 43.3585 9.0483C43.465 9.00284 43.5552 8.9375 43.6291 8.85227C43.7029 8.76705 43.7555 8.66477 43.7868 8.54545H44.2896C44.2612 8.73864 44.1909 8.91264 44.0787 9.06747C43.9679 9.22088 43.8208 9.34304 43.6376 9.43395C43.4558 9.52344 43.2441 9.56818 43.0027 9.56818ZM45.4934 8.30682L45.4849 7.68466H45.5872L47.019 6.22727H47.6412L46.1156 7.76989H46.073L45.4934 8.30682ZM45.0247 9.5V5.13636H45.5275V9.5H45.0247ZM47.1042 9.5L45.8258 7.88068L46.1838 7.53125L47.7434 9.5H47.1042ZM51.3395 6.5C51.2926 6.35653 51.2308 6.22798 51.1541 6.11435C51.0788 5.99929 50.9886 5.90128 50.8835 5.82031C50.7798 5.73935 50.6619 5.67756 50.5298 5.63494C50.3977 5.59233 50.2528 5.57102 50.0952 5.57102C49.8366 5.57102 49.6016 5.63778 49.3899 5.77131C49.1783 5.90483 49.0099 6.10156 48.8849 6.36151C48.7599 6.62145 48.6974 6.94034 48.6974 7.31818C48.6974 7.69602 48.7607 8.01491 48.8871 8.27486C49.0135 8.5348 49.1847 8.73153 49.4006 8.86506C49.6165 8.99858 49.8594 9.06534 50.1293 9.06534C50.3793 9.06534 50.5994 9.01207 50.7898 8.90554C50.9815 8.79759 51.1307 8.6456 51.2372 8.44957C51.3452 8.25213 51.3991 8.01989 51.3991 7.75284L51.5611 7.78693H50.2486V7.31818H51.9105V7.78693C51.9105 8.14631 51.8338 8.45881 51.6804 8.72443C51.5284 8.99006 51.3182 9.19602 51.0497 9.34233C50.7827 9.48722 50.4759 9.55966 50.1293 9.55966C49.7429 9.55966 49.4034 9.46875 49.1108 9.28693C48.8196 9.10511 48.5923 8.84659 48.429 8.51136C48.267 8.17614 48.1861 7.77841 48.1861 7.31818C48.1861 6.97301 48.2322 6.66264 48.3246 6.38707C48.4183 6.11009 48.5504 5.87429 48.7209 5.67969C48.8913 5.48509 49.093 5.33594 49.326 5.23224C49.5589 5.12855 49.8153 5.0767 50.0952 5.0767C50.3253 5.0767 50.5398 5.11151 50.7386 5.18111C50.9389 5.24929 51.1172 5.34659 51.2734 5.47301C51.4311 5.59801 51.5625 5.74787 51.6676 5.92259C51.7727 6.09588 51.8452 6.28835 51.8849 6.5H51.3395ZM54.0769 9.56818C53.7814 9.56818 53.5222 9.49787 53.2992 9.35724C53.0776 9.21662 52.9043 9.01989 52.7793 8.76705C52.6557 8.5142 52.5939 8.21875 52.5939 7.88068C52.5939 7.53977 52.6557 7.24219 52.7793 6.98793C52.9043 6.73366 53.0776 6.53622 53.2992 6.3956C53.5222 6.25497 53.7814 6.18466 54.0769 6.18466C54.3723 6.18466 54.6309 6.25497 54.8525 6.3956C55.0755 6.53622 55.2488 6.73366 55.3723 6.98793C55.4973 7.24219 55.5598 7.53977 55.5598 7.88068C55.5598 8.21875 55.4973 8.5142 55.3723 8.76705C55.2488 9.01989 55.0755 9.21662 54.8525 9.35724C54.6309 9.49787 54.3723 9.56818 54.0769 9.56818ZM54.0769 9.11648C54.3013 9.11648 54.486 9.05895 54.6309 8.94389C54.7757 8.82884 54.883 8.67756 54.9526 8.49006C55.0222 8.30256 55.057 8.09943 55.057 7.88068C55.057 7.66193 55.0222 7.4581 54.9526 7.26918C54.883 7.08026 54.7757 6.92756 54.6309 6.81108C54.486 6.6946 54.3013 6.63636 54.0769 6.63636C53.8525 6.63636 53.6678 6.6946 53.5229 6.81108C53.378 6.92756 53.2708 7.08026 53.2012 7.26918C53.1316 7.4581 53.0968 7.66193 53.0968 7.88068C53.0968 8.09943 53.1316 8.30256 53.2012 8.49006C53.2708 8.67756 53.378 8.82884 53.5229 8.94389C53.6678 9.05895 53.8525 9.11648 54.0769 9.11648Z" fill="black"/>
</svg>
