<svg width="108" height="14" viewBox="0 0 108 14" fill="none" xmlns="http://www.w3.org/2000/svg">
<path d="M10.9583 5.25V8.75H10.5273L8.52295 6.00195H8.48703V8.75H8.04163V5.25H8.47266L10.4842 8.00488H10.5201V5.25H10.9583Z" fill="black"/>
<rect x="6.5" y="4" width="6" height="6" stroke="black"/>
<path d="M22.9886 5.13636V9.5H22.4773L20.0994 6.07386H20.0568V9.5H19.5284V5.13636H20.0398L22.4261 8.57102H22.4688V5.13636H22.9886ZM24.9409 9.5767C24.7335 9.5767 24.5453 9.53764 24.3762 9.45952C24.2072 9.37997 24.073 9.26562 23.9735 9.11648C23.8741 8.96591 23.8244 8.78409 23.8244 8.57102C23.8244 8.38352 23.8613 8.23153 23.9352 8.11506C24.0091 7.99716 24.1078 7.90483 24.2314 7.83807C24.3549 7.77131 24.4913 7.72159 24.6404 7.68892C24.791 7.65483 24.9423 7.62784 25.0943 7.60795C25.2931 7.58239 25.4544 7.56321 25.5779 7.55043C25.7029 7.53622 25.7939 7.51278 25.8507 7.48011C25.9089 7.44744 25.938 7.39062 25.938 7.30966V7.29261C25.938 7.08239 25.8805 6.91903 25.7654 6.80256C25.6518 6.68608 25.4792 6.62784 25.2477 6.62784C25.0076 6.62784 24.8194 6.6804 24.6831 6.78551C24.5467 6.89062 24.4508 7.00284 24.3954 7.12216L23.9181 6.9517C24.0034 6.75284 24.117 6.59801 24.2591 6.48722C24.4025 6.375 24.5588 6.29687 24.7278 6.25284C24.8983 6.20739 25.0659 6.18466 25.2306 6.18466C25.3358 6.18466 25.4565 6.19744 25.5929 6.22301C25.7306 6.24716 25.8635 6.29759 25.9913 6.37429C26.1206 6.45099 26.2278 6.56676 26.313 6.72159C26.3983 6.87642 26.4409 7.08381 26.4409 7.34375V9.5H25.938V9.05682H25.9125C25.8784 9.12784 25.8216 9.20384 25.742 9.2848C25.6625 9.36577 25.5566 9.43466 25.4245 9.49148C25.2924 9.5483 25.1312 9.5767 24.9409 9.5767ZM25.0176 9.125C25.2164 9.125 25.3841 9.08594 25.5204 9.00781C25.6582 8.92969 25.7619 8.82884 25.8315 8.70526C25.9025 8.58168 25.938 8.4517 25.938 8.31534V7.85511C25.9167 7.88068 25.8699 7.90412 25.7974 7.92543C25.7264 7.94531 25.644 7.96307 25.5502 7.97869C25.4579 7.9929 25.3677 8.00568 25.2797 8.01705C25.193 8.02699 25.1227 8.03551 25.0687 8.04261C24.938 8.05966 24.8159 8.08736 24.7022 8.12571C24.59 8.16264 24.4991 8.21875 24.4295 8.29403C24.3613 8.3679 24.3272 8.46875 24.3272 8.59659C24.3272 8.77131 24.3919 8.90341 24.5211 8.9929C24.6518 9.08097 24.8173 9.125 25.0176 9.125ZM29.9176 6.22727L28.7074 9.5H28.196L26.9858 6.22727H27.5312L28.4347 8.83523H28.4688L29.3722 6.22727H29.9176ZM31.8363 9.56818C31.521 9.56818 31.2489 9.49858 31.0202 9.35938C30.793 9.21875 30.6175 9.02273 30.494 8.77131C30.3718 8.51847 30.3107 8.22443 30.3107 7.8892C30.3107 7.55398 30.3718 7.25852 30.494 7.00284C30.6175 6.74574 30.7894 6.54545 31.0096 6.40199C31.2312 6.2571 31.4897 6.18466 31.7852 6.18466C31.9556 6.18466 32.1239 6.21307 32.2901 6.26989C32.4563 6.3267 32.6076 6.41903 32.744 6.54688C32.8803 6.6733 32.989 6.84091 33.07 7.04972C33.1509 7.25852 33.1914 7.51562 33.1914 7.82102V8.03409H30.6687V7.59943H32.68C32.68 7.41477 32.6431 7.25 32.5692 7.10511C32.4968 6.96023 32.3931 6.84588 32.2582 6.76207C32.1246 6.67827 31.967 6.63636 31.7852 6.63636C31.5849 6.63636 31.4116 6.68608 31.2653 6.78551C31.1204 6.88352 31.0089 7.01136 30.9308 7.16903C30.8526 7.3267 30.8136 7.49574 30.8136 7.67614V7.96591C30.8136 8.21307 30.8562 8.42259 30.9414 8.59446C31.0281 8.76491 31.1481 8.89489 31.3015 8.98438C31.4549 9.07244 31.6332 9.11648 31.8363 9.11648C31.9684 9.11648 32.0877 9.09801 32.1942 9.06108C32.3022 9.02273 32.3952 8.96591 32.4734 8.89062C32.5515 8.81392 32.6119 8.71875 32.6545 8.60511L33.1403 8.74148C33.0891 8.90625 33.0032 9.05114 32.8825 9.17614C32.7617 9.29972 32.6126 9.39631 32.435 9.46591C32.2575 9.53409 32.0579 9.56818 31.8363 9.56818ZM33.9563 9.5V6.22727H34.4421V6.72159H34.4762C34.5359 6.55966 34.6438 6.42827 34.8001 6.32741C34.9563 6.22656 35.1325 6.17614 35.3285 6.17614C35.3654 6.17614 35.4116 6.17685 35.467 6.17827C35.5224 6.17969 35.5643 6.18182 35.5927 6.18466V6.69602C35.5756 6.69176 35.5366 6.68537 35.4755 6.67685C35.4158 6.6669 35.3526 6.66193 35.2859 6.66193C35.1268 6.66193 34.9847 6.69531 34.8597 6.76207C34.7362 6.82741 34.6381 6.91832 34.5657 7.0348C34.4947 7.14986 34.4592 7.28125 34.4592 7.42898V9.5H33.9563Z" fill="black"/>
</svg>
