<svg width="108" height="14" viewBox="0 0 108 14" fill="none" xmlns="http://www.w3.org/2000/svg">
<rect x="6.5" y="4" width="6" height="6" stroke="black"/>
<path d="M8.04163 9.04171V4.95837H8.51876V6.98409H8.56493L10.3349 4.95837H10.9583L9.30372 6.80066L10.9583 9.04171H10.3811L9.01128 7.1436L8.51876 7.71781V9.04171H8.04163Z" fill="black"/>
<path d="M19.5284 9.5V5.13636H20.0568V7.30114H20.108L22.0682 5.13636H22.7585L20.9261 7.10511L22.7585 9.5H22.1193L20.6023 7.47159L20.0568 8.08523V9.5H19.5284ZM24.3374 9.5767C24.13 9.5767 23.9418 9.53764 23.7727 9.45952C23.6037 9.37997 23.4695 9.26562 23.37 9.11648C23.2706 8.96591 23.2209 8.78409 23.2209 8.57102C23.2209 8.38352 23.2578 8.23153 23.3317 8.11506C23.4055 7.99716 23.5043 7.90483 23.6278 7.83807C23.7514 7.77131 23.8878 7.72159 24.0369 7.68892C24.1875 7.65483 24.3388 7.62784 24.4908 7.60795C24.6896 7.58239 24.8509 7.56321 24.9744 7.55043C25.0994 7.53622 25.1903 7.51278 25.2472 7.48011C25.3054 7.44744 25.3345 7.39062 25.3345 7.30966V7.29261C25.3345 7.08239 25.277 6.91903 25.1619 6.80256C25.0483 6.68608 24.8757 6.62784 24.6442 6.62784C24.4041 6.62784 24.2159 6.6804 24.0795 6.78551C23.9432 6.89062 23.8473 7.00284 23.7919 7.12216L23.3146 6.9517C23.3999 6.75284 23.5135 6.59801 23.6555 6.48722C23.799 6.375 23.9553 6.29687 24.1243 6.25284C24.2947 6.20739 24.4624 6.18466 24.6271 6.18466C24.7322 6.18466 24.853 6.19744 24.9893 6.22301C25.1271 6.24716 25.2599 6.29759 25.3878 6.37429C25.517 6.45099 25.6243 6.56676 25.7095 6.72159C25.7947 6.87642 25.8374 7.08381 25.8374 7.34375V9.5H25.3345V9.05682H25.3089C25.2749 9.12784 25.218 9.20384 25.1385 9.2848C25.0589 9.36577 24.9531 9.43466 24.821 9.49148C24.6889 9.5483 24.5277 9.5767 24.3374 9.5767ZM24.4141 9.125C24.6129 9.125 24.7805 9.08594 24.9169 9.00781C25.0547 8.92969 25.1584 8.82884 25.228 8.70526C25.299 8.58168 25.3345 8.4517 25.3345 8.31534V7.85511C25.3132 7.88068 25.2663 7.90412 25.1939 7.92543C25.1229 7.94531 25.0405 7.96307 24.9467 7.97869C24.8544 7.9929 24.7642 8.00568 24.6761 8.01705C24.5895 8.02699 24.5192 8.03551 24.4652 8.04261C24.3345 8.05966 24.2124 8.08736 24.0987 8.12571C23.9865 8.16264 23.8956 8.21875 23.826 8.29403C23.7578 8.3679 23.7237 8.46875 23.7237 8.59659C23.7237 8.77131 23.7884 8.90341 23.9176 8.9929C24.0483 9.08097 24.2138 9.125 24.4141 9.125ZM27.2239 8.30682L27.2154 7.68466H27.3176L28.7495 6.22727H29.3716L27.8461 7.76989H27.8034L27.2239 8.30682ZM26.7551 9.5V5.13636H27.258V9.5H26.7551ZM28.8347 9.5L27.5563 7.88068L27.9142 7.53125L29.4739 9.5H28.8347ZM30.9819 9.5767C30.7745 9.5767 30.5863 9.53764 30.4173 9.45952C30.2482 9.37997 30.114 9.26562 30.0146 9.11648C29.9151 8.96591 29.8654 8.78409 29.8654 8.57102C29.8654 8.38352 29.9023 8.23153 29.9762 8.11506C30.0501 7.99716 30.1488 7.90483 30.2724 7.83807C30.396 7.77131 30.5323 7.72159 30.6815 7.68892C30.832 7.65483 30.9833 7.62784 31.1353 7.60795C31.3342 7.58239 31.4954 7.56321 31.619 7.55043C31.744 7.53622 31.8349 7.51278 31.8917 7.48011C31.9499 7.44744 31.979 7.39062 31.979 7.30966V7.29261C31.979 7.08239 31.9215 6.91903 31.8065 6.80256C31.6928 6.68608 31.5202 6.62784 31.2887 6.62784C31.0487 6.62784 30.8604 6.6804 30.7241 6.78551C30.5877 6.89062 30.4918 7.00284 30.4364 7.12216L29.9592 6.9517C30.0444 6.75284 30.158 6.59801 30.3001 6.48722C30.4435 6.375 30.5998 6.29687 30.7688 6.25284C30.9393 6.20739 31.1069 6.18466 31.2717 6.18466C31.3768 6.18466 31.4975 6.19744 31.6339 6.22301C31.7717 6.24716 31.9045 6.29759 32.0323 6.37429C32.1616 6.45099 32.2688 6.56676 32.354 6.72159C32.4393 6.87642 32.4819 7.08381 32.4819 7.34375V9.5H31.979V9.05682H31.9535C31.9194 9.12784 31.8626 9.20384 31.783 9.2848C31.7035 9.36577 31.5977 9.43466 31.4656 9.49148C31.3335 9.5483 31.1722 9.5767 30.9819 9.5767ZM31.0586 9.125C31.2575 9.125 31.4251 9.08594 31.5614 9.00781C31.6992 8.92969 31.8029 8.82884 31.8725 8.70526C31.9435 8.58168 31.979 8.4517 31.979 8.31534V7.85511C31.9577 7.88068 31.9109 7.90412 31.8384 7.92543C31.7674 7.94531 31.685 7.96307 31.5913 7.97869C31.4989 7.9929 31.4087 8.00568 31.3207 8.01705C31.234 8.02699 31.1637 8.03551 31.1097 8.04261C30.979 8.05966 30.8569 8.08736 30.7433 8.12571C30.631 8.16264 30.5401 8.21875 30.4705 8.29403C30.4023 8.3679 30.3683 8.46875 30.3683 8.59659C30.3683 8.77131 30.4329 8.90341 30.5621 8.9929C30.6928 9.08097 30.8583 9.125 31.0586 9.125ZM34.7292 9.56818C34.4338 9.56818 34.1745 9.49787 33.9515 9.35724C33.7299 9.21662 33.5566 9.01989 33.4316 8.76705C33.3081 8.5142 33.2463 8.21875 33.2463 7.88068C33.2463 7.53977 33.3081 7.24219 33.4316 6.98793C33.5566 6.73366 33.7299 6.53622 33.9515 6.3956C34.1745 6.25497 34.4338 6.18466 34.7292 6.18466C35.0247 6.18466 35.2832 6.25497 35.5048 6.3956C35.7278 6.53622 35.9011 6.73366 36.0247 6.98793C36.1497 7.24219 36.2122 7.53977 36.2122 7.88068C36.2122 8.21875 36.1497 8.5142 36.0247 8.76705C35.9011 9.01989 35.7278 9.21662 35.5048 9.35724C35.2832 9.49787 35.0247 9.56818 34.7292 9.56818ZM34.7292 9.11648C34.9537 9.11648 35.1383 9.05895 35.2832 8.94389C35.4281 8.82884 35.5353 8.67756 35.6049 8.49006C35.6745 8.30256 35.7093 8.09943 35.7093 7.88068C35.7093 7.66193 35.6745 7.4581 35.6049 7.26918C35.5353 7.08026 35.4281 6.92756 35.2832 6.81108C35.1383 6.6946 34.9537 6.63636 34.7292 6.63636C34.5048 6.63636 34.3201 6.6946 34.1752 6.81108C34.0304 6.92756 33.9231 7.08026 33.8535 7.26918C33.7839 7.4581 33.7491 7.66193 33.7491 7.88068C33.7491 8.09943 33.7839 8.30256 33.8535 8.49006C33.9231 8.67756 34.0304 8.82884 34.1752 8.94389C34.3201 9.05895 34.5048 9.11648 34.7292 9.11648Z" fill="black"/>
</svg>
