<svg width="110" height="35" viewBox="0 0 110 35" fill="none" xmlns="http://www.w3.org/2000/svg">
<rect x="6.5" y="12" width="11" height="11" stroke="black"/>
<path d="M15 16.2224H14.1389C14.088 15.9851 13.9988 15.7766 13.8715 15.597C13.7465 15.4173 13.5937 15.2665 13.4132 15.1445C13.235 15.0203 13.037 14.9271 12.8194 14.865C12.6019 14.8029 12.375 14.7719 12.1389 14.7719C11.7083 14.7719 11.3183 14.8761 10.9687 15.0846C10.6215 15.2931 10.3449 15.6003 10.1389 16.0062C9.93519 16.4121 9.83333 16.91 9.83333 17.5C9.83333 18.09 9.93519 18.5879 10.1389 18.9938C10.3449 19.3997 10.6215 19.7069 10.9687 19.9154C11.3183 20.1239 11.7083 20.2281 12.1389 20.2281C12.375 20.2281 12.6019 20.1971 12.8194 20.135C13.037 20.0729 13.235 19.9808 13.4132 19.8588C13.5937 19.7346 13.7465 19.5827 13.8715 19.403C13.9988 19.2212 14.088 19.0127 14.1389 18.7776H15C14.9352 19.1258 14.8171 19.4374 14.6458 19.7125C14.4745 19.9875 14.2616 20.2215 14.0069 20.4144C13.7523 20.6052 13.4664 20.7505 13.1493 20.8503C12.8345 20.9501 12.4977 21 12.1389 21C11.5324 21 10.9931 20.858 10.5208 20.5741C10.0486 20.2902 9.67708 19.8866 9.40625 19.3631C9.13542 18.8397 9 18.2186 9 17.5C9 16.7814 9.13542 16.1603 9.40625 15.6369C9.67708 15.1134 10.0486 14.7098 10.5208 14.4259C10.9931 14.142 11.5324 14 12.1389 14C12.4977 14 12.8345 14.0499 13.1493 14.1497C13.4664 14.2495 13.7523 14.3959 14.0069 14.5889C14.2616 14.7796 14.4745 15.0125 14.6458 15.2875C14.8171 15.5604 14.9352 15.872 15 16.2224Z" fill="black"/>
<path d="M34.733 16.5H33.8523C33.8002 16.2467 33.709 16.0241 33.5788 15.8324C33.451 15.6406 33.2947 15.4796 33.1101 15.3494C32.9278 15.2169 32.7254 15.1174 32.5028 15.0511C32.2803 14.9848 32.0483 14.9517 31.8068 14.9517C31.3665 14.9517 30.9676 15.063 30.6101 15.2855C30.255 15.508 29.9721 15.8359 29.7614 16.2692C29.553 16.7024 29.4489 17.2339 29.4489 17.8636C29.4489 18.4934 29.553 19.0249 29.7614 19.4581C29.9721 19.8913 30.255 20.2192 30.6101 20.4418C30.9676 20.6643 31.3665 20.7756 31.8068 20.7756C32.0483 20.7756 32.2803 20.7424 32.5028 20.6761C32.7254 20.6098 32.9278 20.5116 33.1101 20.3814C33.2947 20.2488 33.451 20.0866 33.5788 19.8949C33.709 19.7008 33.8002 19.4782 33.8523 19.2273H34.733C34.6667 19.599 34.5459 19.9316 34.3707 20.2251C34.1955 20.5187 33.9777 20.7685 33.7173 20.9744C33.4569 21.178 33.1645 21.3331 32.8402 21.4396C32.5182 21.5462 32.1738 21.5994 31.8068 21.5994C31.1866 21.5994 30.6349 21.4479 30.152 21.1449C29.669 20.8419 29.2891 20.411 29.0121 19.8523C28.7351 19.2936 28.5966 18.6307 28.5966 17.8636C28.5966 17.0966 28.7351 16.4337 29.0121 15.875C29.2891 15.3163 29.669 14.8854 30.152 14.5824C30.6349 14.2794 31.1866 14.1278 31.8068 14.1278C32.1738 14.1278 32.5182 14.1811 32.8402 14.2876C33.1645 14.3942 33.4569 14.5504 33.7173 14.7564C33.9777 14.96 34.1955 15.2086 34.3707 15.5021C34.5459 15.7933 34.6667 16.1259 34.733 16.5ZM38.2583 21.6136C37.7659 21.6136 37.3339 21.4964 36.9622 21.2621C36.5929 21.0277 36.304 20.6998 36.0957 20.2784C35.8897 19.857 35.7868 19.3646 35.7868 18.8011C35.7868 18.233 35.8897 17.737 36.0957 17.3132C36.304 16.8894 36.5929 16.5604 36.9622 16.326C37.3339 16.0916 37.7659 15.9744 38.2583 15.9744C38.7508 15.9744 39.1816 16.0916 39.551 16.326C39.9226 16.5604 40.2115 16.8894 40.4174 17.3132C40.6258 17.737 40.7299 18.233 40.7299 18.8011C40.7299 19.3646 40.6258 19.857 40.4174 20.2784C40.2115 20.6998 39.9226 21.0277 39.551 21.2621C39.1816 21.4964 38.7508 21.6136 38.2583 21.6136ZM38.2583 20.8608C38.6324 20.8608 38.9402 20.7649 39.1816 20.5732C39.4231 20.3814 39.6019 20.1293 39.7179 19.8168C39.8339 19.5043 39.8919 19.1657 39.8919 18.8011C39.8919 18.4366 39.8339 18.0968 39.7179 17.782C39.6019 17.4671 39.4231 17.2126 39.1816 17.0185C38.9402 16.8243 38.6324 16.7273 38.2583 16.7273C37.8843 16.7273 37.5765 16.8243 37.335 17.0185C37.0936 17.2126 36.9148 17.4671 36.7988 17.782C36.6828 18.0968 36.6248 18.4366 36.6248 18.8011C36.6248 19.1657 36.6828 19.5043 36.7988 19.8168C36.9148 20.1293 37.0936 20.3814 37.335 20.5732C37.5765 20.7649 37.8843 20.8608 38.2583 20.8608ZM44.2251 21.6136C43.7138 21.6136 43.2734 21.4929 42.9041 21.2514C42.5348 21.0099 42.2507 20.6773 42.0518 20.2536C41.853 19.8298 41.7536 19.3456 41.7536 18.8011C41.7536 18.2472 41.8554 17.7583 42.0589 17.3345C42.2649 16.9084 42.5514 16.5758 42.9183 16.3366C43.2876 16.0952 43.7185 15.9744 44.2109 15.9744C44.5945 15.9744 44.9401 16.0455 45.2479 16.1875C45.5556 16.3295 45.8078 16.5284 46.0043 16.7841C46.2008 17.0398 46.3227 17.3381 46.37 17.679H45.532C45.468 17.4304 45.326 17.2102 45.1058 17.0185C44.888 16.8243 44.5945 16.7273 44.2251 16.7273C43.8984 16.7273 43.612 16.8125 43.3658 16.983C43.1219 17.151 42.9313 17.389 42.794 17.6967C42.6591 18.0021 42.5916 18.3608 42.5916 18.7727C42.5916 19.1941 42.6579 19.5611 42.7905 19.8736C42.9254 20.1861 43.1148 20.4287 43.3587 20.6016C43.6049 20.7744 43.8937 20.8608 44.2251 20.8608C44.4429 20.8608 44.6406 20.8229 44.8182 20.7472C44.9957 20.6714 45.1461 20.5625 45.2692 20.4205C45.3923 20.2784 45.4799 20.108 45.532 19.9091H46.37C46.3227 20.2311 46.2055 20.5211 46.0185 20.7791C45.8338 21.0348 45.5888 21.2384 45.2834 21.3899C44.9804 21.5391 44.6276 21.6136 44.2251 21.6136ZM56.3736 16.5H55.4929C55.4408 16.2467 55.3497 16.0241 55.2195 15.8324C55.0916 15.6406 54.9354 15.4796 54.7507 15.3494C54.5684 15.2169 54.366 15.1174 54.1435 15.0511C53.9209 14.9848 53.6889 14.9517 53.4474 14.9517C53.0071 14.9517 52.6082 15.063 52.2507 15.2855C51.8956 15.508 51.6127 15.8359 51.402 16.2692C51.1937 16.7024 51.0895 17.2339 51.0895 17.8636C51.0895 18.4934 51.1937 19.0249 51.402 19.4581C51.6127 19.8913 51.8956 20.2192 52.2507 20.4418C52.6082 20.6643 53.0071 20.7756 53.4474 20.7756C53.6889 20.7756 53.9209 20.7424 54.1435 20.6761C54.366 20.6098 54.5684 20.5116 54.7507 20.3814C54.9354 20.2488 55.0916 20.0866 55.2195 19.8949C55.3497 19.7008 55.4408 19.4782 55.4929 19.2273H56.3736C56.3073 19.599 56.1866 19.9316 56.0114 20.2251C55.8362 20.5187 55.6184 20.7685 55.358 20.9744C55.0975 21.178 54.8052 21.3331 54.4808 21.4396C54.1589 21.5462 53.8144 21.5994 53.4474 21.5994C52.8272 21.5994 52.2756 21.4479 51.7926 21.1449C51.3097 20.8419 50.9297 20.411 50.6527 19.8523C50.3757 19.2936 50.2372 18.6307 50.2372 17.8636C50.2372 17.0966 50.3757 16.4337 50.6527 15.875C50.9297 15.3163 51.3097 14.8854 51.7926 14.5824C52.2756 14.2794 52.8272 14.1278 53.4474 14.1278C53.8144 14.1278 54.1589 14.1811 54.4808 14.2876C54.8052 14.3942 55.0975 14.5504 55.358 14.7564C55.6184 14.96 55.8362 15.2086 56.0114 15.5021C56.1866 15.7933 56.3073 16.1259 56.3736 16.5ZM59.899 21.6136C59.4065 21.6136 58.9745 21.4964 58.6028 21.2621C58.2335 21.0277 57.9447 20.6998 57.7363 20.2784C57.5304 19.857 57.4274 19.3646 57.4274 18.8011C57.4274 18.233 57.5304 17.737 57.7363 17.3132C57.9447 16.8894 58.2335 16.5604 58.6028 16.326C58.9745 16.0916 59.4065 15.9744 59.899 15.9744C60.3914 15.9744 60.8223 16.0916 61.1916 16.326C61.5633 16.5604 61.8521 16.8894 62.0581 17.3132C62.2664 17.737 62.3706 18.233 62.3706 18.8011C62.3706 19.3646 62.2664 19.857 62.0581 20.2784C61.8521 20.6998 61.5633 21.0277 61.1916 21.2621C60.8223 21.4964 60.3914 21.6136 59.899 21.6136ZM59.899 20.8608C60.273 20.8608 60.5808 20.7649 60.8223 20.5732C61.0637 20.3814 61.2425 20.1293 61.3585 19.8168C61.4745 19.5043 61.5325 19.1657 61.5325 18.8011C61.5325 18.4366 61.4745 18.0968 61.3585 17.782C61.2425 17.4671 61.0637 17.2126 60.8223 17.0185C60.5808 16.8243 60.273 16.7273 59.899 16.7273C59.5249 16.7273 59.2172 16.8243 58.9757 17.0185C58.7342 17.2126 58.5555 17.4671 58.4395 17.782C58.3234 18.0968 58.2654 18.4366 58.2654 18.8011C58.2654 19.1657 58.3234 19.5043 58.4395 19.8168C58.5555 20.1293 58.7342 20.3814 58.9757 20.5732C59.2172 20.7649 59.5249 20.8608 59.899 20.8608ZM65.8658 21.6136C65.3544 21.6136 64.9141 21.4929 64.5447 21.2514C64.1754 21.0099 63.8913 20.6773 63.6925 20.2536C63.4936 19.8298 63.3942 19.3456 63.3942 18.8011C63.3942 18.2472 63.496 17.7583 63.6996 17.3345C63.9055 16.9084 64.192 16.5758 64.5589 16.3366C64.9283 16.0952 65.3591 15.9744 65.8516 15.9744C66.2351 15.9744 66.5807 16.0455 66.8885 16.1875C67.1963 16.3295 67.4484 16.5284 67.6449 16.7841C67.8414 17.0398 67.9633 17.3381 68.0107 17.679H67.1726C67.1087 17.4304 66.9666 17.2102 66.7464 17.0185C66.5286 16.8243 66.2351 16.7273 65.8658 16.7273C65.5391 16.7273 65.2526 16.8125 65.0064 16.983C64.7625 17.151 64.572 17.389 64.4347 17.6967C64.2997 18.0021 64.2322 18.3608 64.2322 18.7727C64.2322 19.1941 64.2985 19.5611 64.4311 19.8736C64.5661 20.1861 64.7554 20.4287 64.9993 20.6016C65.2455 20.7744 65.5343 20.8608 65.8658 20.8608C66.0836 20.8608 66.2812 20.8229 66.4588 20.7472C66.6364 20.6714 66.7867 20.5625 66.9098 20.4205C67.0329 20.2784 67.1205 20.108 67.1726 19.9091H68.0107C67.9633 20.2311 67.8461 20.5211 67.6591 20.7791C67.4744 21.0348 67.2294 21.2384 66.924 21.3899C66.621 21.5391 66.2682 21.6136 65.8658 21.6136Z" fill="black"/>
</svg>
