<svg width="108" height="14" viewBox="0 0 108 14" fill="none" xmlns="http://www.w3.org/2000/svg">
<rect x="6.5" y="4" width="6" height="6" stroke="black"/>
<path d="M7.75 4.95837H8.32523L9.47569 6.86446H9.52431L10.6748 4.95837H11.25L9.75116 7.35893V9.04171H9.24884V7.35893L7.75 4.95837Z" fill="black"/>
<path d="M19.1534 5.13636H19.7585L20.9688 7.1733H21.0199L22.2301 5.13636H22.8352L21.2585 7.7017V9.5H20.7301V7.7017L19.1534 5.13636ZM23.9858 9.5767C23.7784 9.5767 23.5902 9.53764 23.4212 9.45952C23.2521 9.37997 23.1179 9.26562 23.0185 9.11648C22.919 8.96591 22.8693 8.78409 22.8693 8.57102C22.8693 8.38352 22.9063 8.23153 22.9801 8.11506C23.054 7.99716 23.1527 7.90483 23.2763 7.83807C23.3999 7.77131 23.5362 7.72159 23.6854 7.68892C23.8359 7.65483 23.9872 7.62784 24.1392 7.60795C24.3381 7.58239 24.4993 7.56321 24.6229 7.55043C24.7479 7.53622 24.8388 7.51278 24.8956 7.48011C24.9538 7.44744 24.983 7.39062 24.983 7.30966V7.29261C24.983 7.08239 24.9254 6.91903 24.8104 6.80256C24.6967 6.68608 24.5241 6.62784 24.2926 6.62784C24.0526 6.62784 23.8643 6.6804 23.728 6.78551C23.5916 6.89062 23.4957 7.00284 23.4403 7.12216L22.9631 6.9517C23.0483 6.75284 23.1619 6.59801 23.304 6.48722C23.4474 6.375 23.6037 6.29687 23.7727 6.25284C23.9432 6.20739 24.1108 6.18466 24.2756 6.18466C24.3807 6.18466 24.5014 6.19744 24.6378 6.22301C24.7756 6.24716 24.9084 6.29759 25.0362 6.37429C25.1655 6.45099 25.2727 6.56676 25.358 6.72159C25.4432 6.87642 25.4858 7.08381 25.4858 7.34375V9.5H24.983V9.05682H24.9574C24.9233 9.12784 24.8665 9.20384 24.7869 9.2848C24.7074 9.36577 24.6016 9.43466 24.4695 9.49148C24.3374 9.5483 24.1761 9.5767 23.9858 9.5767ZM24.0625 9.125C24.2614 9.125 24.429 9.08594 24.5653 9.00781C24.7031 8.92969 24.8068 8.82884 24.8764 8.70526C24.9474 8.58168 24.983 8.4517 24.983 8.31534V7.85511C24.9616 7.88068 24.9148 7.90412 24.8423 7.92543C24.7713 7.94531 24.6889 7.96307 24.5952 7.97869C24.5028 7.9929 24.4126 8.00568 24.3246 8.01705C24.2379 8.02699 24.1676 8.03551 24.1136 8.04261C23.983 8.05966 23.8608 8.08736 23.7472 8.12571C23.6349 8.16264 23.544 8.21875 23.4744 8.29403C23.4063 8.3679 23.3722 8.46875 23.3722 8.59659C23.3722 8.77131 23.4368 8.90341 23.5661 8.9929C23.6967 9.08097 23.8622 9.125 24.0625 9.125ZM26.9064 7.53125V9.5H26.4036V5.13636H26.9064V6.73864H26.949C27.0257 6.5696 27.1408 6.43537 27.2942 6.33594C27.449 6.23509 27.655 6.18466 27.9121 6.18466C28.1351 6.18466 28.3304 6.2294 28.498 6.31889C28.6657 6.40696 28.7956 6.54261 28.888 6.72585C28.9817 6.90767 29.0286 7.1392 29.0286 7.42045V9.5H28.5257V7.45455C28.5257 7.1946 28.4583 6.99361 28.3233 6.85156C28.1898 6.7081 28.0044 6.63636 27.7672 6.63636C27.6025 6.63636 27.4547 6.67116 27.324 6.74077C27.1948 6.81037 27.0925 6.91193 27.0172 7.04545C26.9434 7.17898 26.9064 7.34091 26.9064 7.53125ZM31.2781 9.56818C30.9826 9.56818 30.7234 9.49787 30.5004 9.35724C30.2788 9.21662 30.1055 9.01989 29.9805 8.76705C29.8569 8.5142 29.7951 8.21875 29.7951 7.88068C29.7951 7.53977 29.8569 7.24219 29.9805 6.98793C30.1055 6.73366 30.2788 6.53622 30.5004 6.3956C30.7234 6.25497 30.9826 6.18466 31.2781 6.18466C31.5735 6.18466 31.832 6.25497 32.0536 6.3956C32.2766 6.53622 32.4499 6.73366 32.5735 6.98793C32.6985 7.24219 32.761 7.53977 32.761 7.88068C32.761 8.21875 32.6985 8.5142 32.5735 8.76705C32.4499 9.01989 32.2766 9.21662 32.0536 9.35724C31.832 9.49787 31.5735 9.56818 31.2781 9.56818ZM31.2781 9.11648C31.5025 9.11648 31.6871 9.05895 31.832 8.94389C31.9769 8.82884 32.0842 8.67756 32.1538 8.49006C32.2234 8.30256 32.2582 8.09943 32.2582 7.88068C32.2582 7.66193 32.2234 7.4581 32.1538 7.26918C32.0842 7.08026 31.9769 6.92756 31.832 6.81108C31.6871 6.6946 31.5025 6.63636 31.2781 6.63636C31.0536 6.63636 30.869 6.6946 30.7241 6.81108C30.5792 6.92756 30.4719 7.08026 30.4023 7.26918C30.3327 7.4581 30.2979 7.66193 30.2979 7.88068C30.2979 8.09943 30.3327 8.30256 30.4023 8.49006C30.4719 8.67756 30.5792 8.82884 30.7241 8.94389C30.869 9.05895 31.0536 9.11648 31.2781 9.11648ZM34.8581 9.56818C34.5627 9.56818 34.3034 9.49787 34.0804 9.35724C33.8588 9.21662 33.6855 9.01989 33.5605 8.76705C33.437 8.5142 33.3752 8.21875 33.3752 7.88068C33.3752 7.53977 33.437 7.24219 33.5605 6.98793C33.6855 6.73366 33.8588 6.53622 34.0804 6.3956C34.3034 6.25497 34.5627 6.18466 34.8581 6.18466C35.1536 6.18466 35.4121 6.25497 35.6337 6.3956C35.8567 6.53622 36.03 6.73366 36.1536 6.98793C36.2786 7.24219 36.3411 7.53977 36.3411 7.88068C36.3411 8.21875 36.2786 8.5142 36.1536 8.76705C36.03 9.01989 35.8567 9.21662 35.6337 9.35724C35.4121 9.49787 35.1536 9.56818 34.8581 9.56818ZM34.8581 9.11648C35.0826 9.11648 35.2672 9.05895 35.4121 8.94389C35.557 8.82884 35.6642 8.67756 35.7338 8.49006C35.8034 8.30256 35.8382 8.09943 35.8382 7.88068C35.8382 7.66193 35.8034 7.4581 35.7338 7.26918C35.6642 7.08026 35.557 6.92756 35.4121 6.81108C35.2672 6.6946 35.0826 6.63636 34.8581 6.63636C34.6337 6.63636 34.449 6.6946 34.3042 6.81108C34.1593 6.92756 34.052 7.08026 33.9824 7.26918C33.9128 7.4581 33.878 7.66193 33.878 7.88068C33.878 8.09943 33.9128 8.30256 33.9824 8.49006C34.052 8.67756 34.1593 8.82884 34.3042 8.94389C34.449 9.05895 34.6337 9.11648 34.8581 9.11648Z" fill="black"/>
</svg>
