<svg width="110" height="35" viewBox="0 0 110 35" fill="none" xmlns="http://www.w3.org/2000/svg">
<path d="M14.0801 16.2224C14.0046 15.9984 13.905 15.7977 13.7815 15.6202C13.6602 15.4406 13.5149 15.2875 13.3455 15.1611C13.1785 15.0347 12.9886 14.9382 12.7757 14.8717C12.5629 14.8051 12.3295 14.7719 12.0755 14.7719C11.659 14.7719 11.2803 14.8761 10.9394 15.0846C10.5984 15.2931 10.3272 15.6003 10.1259 16.0062C9.92449 16.4121 9.8238 16.91 9.8238 17.5C9.8238 18.09 9.92563 18.5879 10.1293 18.9938C10.333 19.3997 10.6087 19.7069 10.9565 19.9154C11.3043 20.1239 11.6957 20.2281 12.1304 20.2281C12.5332 20.2281 12.8879 20.145 13.1945 19.9786C13.5034 19.81 13.7437 19.5727 13.9153 19.2666C14.0892 18.9583 14.1762 18.5957 14.1762 18.1787L14.4371 18.2319H12.3227V17.5H15V18.2319C15 18.7931 14.8764 19.2811 14.6293 19.6958C14.3844 20.1106 14.0458 20.4322 13.6133 20.6606C13.1831 20.8869 12.6888 21 12.1304 21C11.508 21 10.9611 20.858 10.4897 20.5741C10.0206 20.2902 9.65446 19.8866 9.3913 19.3631C9.13043 18.8397 9 18.2186 9 17.5C9 16.961 9.07437 16.4764 9.22311 16.0461C9.37414 15.6136 9.58696 15.2454 9.86156 14.9415C10.1362 14.6377 10.4611 14.4048 10.8364 14.2429C11.2117 14.081 11.6247 14 12.0755 14C12.4462 14 12.7918 14.0543 13.1121 14.163C13.4348 14.2695 13.722 14.4214 13.9737 14.6188C14.2277 14.814 14.4394 15.048 14.6087 15.3208C14.778 15.5914 14.8947 15.892 14.9588 16.2224H14.0801Z" fill="black"/>
<rect x="6.5" y="12" width="11" height="11" stroke="black"/>
<path d="M33.8523 16.5C33.7741 16.2609 33.6712 16.0466 33.5433 15.8572C33.4179 15.6655 33.2675 15.5021 33.0923 15.3672C32.9195 15.2322 32.723 15.1293 32.5028 15.0582C32.2827 14.9872 32.0412 14.9517 31.7784 14.9517C31.3475 14.9517 30.9557 15.063 30.603 15.2855C30.2502 15.508 29.9697 15.8359 29.7614 16.2692C29.553 16.7024 29.4489 17.2339 29.4489 17.8636C29.4489 18.4934 29.5542 19.0249 29.7649 19.4581C29.9756 19.8913 30.2609 20.2192 30.6207 20.4418C30.9806 20.6643 31.3854 20.7756 31.8352 20.7756C32.2519 20.7756 32.6188 20.6868 32.9361 20.5092C33.2557 20.3293 33.5043 20.076 33.6818 19.7493C33.8617 19.4202 33.9517 19.0331 33.9517 18.5881L34.2216 18.6449H32.0341V17.8636H34.804V18.6449C34.804 19.2438 34.6761 19.7647 34.4205 20.2074C34.1671 20.6501 33.8168 20.9934 33.3693 21.2372C32.9242 21.4787 32.4129 21.5994 31.8352 21.5994C31.1913 21.5994 30.6255 21.4479 30.1378 21.1449C29.6525 20.8419 29.2737 20.411 29.0014 19.8523C28.7315 19.2936 28.5966 18.6307 28.5966 17.8636C28.5966 17.2884 28.6735 16.7711 28.8274 16.3118C28.9837 15.8501 29.2038 15.4571 29.4879 15.1328C29.772 14.8085 30.1082 14.5599 30.4964 14.3871C30.8847 14.2143 31.312 14.1278 31.7784 14.1278C32.1619 14.1278 32.5194 14.1858 32.8509 14.3018C33.1847 14.4155 33.4818 14.5777 33.7422 14.7884C34.005 14.9967 34.224 15.2464 34.3991 15.5376C34.5743 15.8265 34.6951 16.1473 34.7614 16.5H33.8523ZM38.4146 21.6136C37.9222 21.6136 37.4901 21.4964 37.1184 21.2621C36.7491 21.0277 36.4603 20.6998 36.252 20.2784C36.046 19.857 35.943 19.3646 35.943 18.8011C35.943 18.233 36.046 17.737 36.252 17.3132C36.4603 16.8894 36.7491 16.5604 37.1184 16.326C37.4901 16.0916 37.9222 15.9744 38.4146 15.9744C38.907 15.9744 39.3379 16.0916 39.7072 16.326C40.0789 16.5604 40.3677 16.8894 40.5737 17.3132C40.782 17.737 40.8862 18.233 40.8862 18.8011C40.8862 19.3646 40.782 19.857 40.5737 20.2784C40.3677 20.6998 40.0789 21.0277 39.7072 21.2621C39.3379 21.4964 38.907 21.6136 38.4146 21.6136ZM38.4146 20.8608C38.7886 20.8608 39.0964 20.7649 39.3379 20.5732C39.5794 20.3814 39.7581 20.1293 39.8741 19.8168C39.9901 19.5043 40.0481 19.1657 40.0481 18.8011C40.0481 18.4366 39.9901 18.0968 39.8741 17.782C39.7581 17.4671 39.5794 17.2126 39.3379 17.0185C39.0964 16.8243 38.7886 16.7273 38.4146 16.7273C38.0405 16.7273 37.7328 16.8243 37.4913 17.0185C37.2498 17.2126 37.0711 17.4671 36.9551 17.782C36.8391 18.0968 36.7811 18.4366 36.7811 18.8011C36.7811 19.1657 36.8391 19.5043 36.9551 19.8168C37.0711 20.1293 37.2498 20.3814 37.4913 20.5732C37.7328 20.7649 38.0405 20.8608 38.4146 20.8608ZM44.3814 21.6136C43.889 21.6136 43.4569 21.4964 43.0852 21.2621C42.7159 21.0277 42.4271 20.6998 42.2188 20.2784C42.0128 19.857 41.9098 19.3646 41.9098 18.8011C41.9098 18.233 42.0128 17.737 42.2188 17.3132C42.4271 16.8894 42.7159 16.5604 43.0852 16.326C43.4569 16.0916 43.889 15.9744 44.3814 15.9744C44.8738 15.9744 45.3047 16.0916 45.674 16.326C46.0457 16.5604 46.3345 16.8894 46.5405 17.3132C46.7488 17.737 46.853 18.233 46.853 18.8011C46.853 19.3646 46.7488 19.857 46.5405 20.2784C46.3345 20.6998 46.0457 21.0277 45.674 21.2621C45.3047 21.4964 44.8738 21.6136 44.3814 21.6136ZM44.3814 20.8608C44.7554 20.8608 45.0632 20.7649 45.3047 20.5732C45.5462 20.3814 45.7249 20.1293 45.8409 19.8168C45.9569 19.5043 46.0149 19.1657 46.0149 18.8011C46.0149 18.4366 45.9569 18.0968 45.8409 17.782C45.7249 17.4671 45.5462 17.2126 45.3047 17.0185C45.0632 16.8243 44.7554 16.7273 44.3814 16.7273C44.0073 16.7273 43.6996 16.8243 43.4581 17.0185C43.2166 17.2126 43.0379 17.4671 42.9219 17.782C42.8059 18.0968 42.7479 18.4366 42.7479 18.8011C42.7479 19.1657 42.8059 19.5043 42.9219 19.8168C43.0379 20.1293 43.2166 20.3814 43.4581 20.5732C43.6996 20.7649 44.0073 20.8608 44.3814 20.8608ZM50.334 23.6591C49.9292 23.6591 49.5811 23.607 49.29 23.5028C48.9988 23.401 48.7561 23.2661 48.562 23.098C48.3702 22.9323 48.2175 22.7547 48.1039 22.5653L48.7715 22.0966C48.8472 22.196 48.9431 22.3097 49.0591 22.4375C49.1751 22.5677 49.3337 22.6802 49.535 22.7749C49.7386 22.8719 50.0049 22.9205 50.334 22.9205C50.7743 22.9205 51.1377 22.8139 51.4242 22.6009C51.7106 22.3878 51.8539 22.054 51.8539 21.5994V20.4915H51.7828C51.7213 20.5909 51.6337 20.714 51.5201 20.8608C51.4088 21.0052 51.2478 21.1342 51.0371 21.2479C50.8288 21.3591 50.5471 21.4148 50.1919 21.4148C49.7516 21.4148 49.3562 21.3106 49.0059 21.1023C48.6578 20.8939 48.382 20.5909 48.1784 20.1932C47.9772 19.7955 47.8766 19.3125 47.8766 18.7443C47.8766 18.1856 47.9748 17.6991 48.1713 17.2848C48.3678 16.8681 48.6413 16.5462 48.9917 16.3189C49.342 16.0893 49.7469 15.9744 50.2061 15.9744C50.5613 15.9744 50.843 16.0336 51.0513 16.152C51.262 16.268 51.423 16.4006 51.5343 16.5497C51.6479 16.6965 51.7355 16.8172 51.7971 16.9119H51.8823V16.0455H52.6919V21.6562C52.6919 22.125 52.5854 22.5062 52.3723 22.7997C52.1616 23.0956 51.8775 23.3123 51.5201 23.4496C51.165 23.5893 50.7696 23.6591 50.334 23.6591ZM50.3056 20.6619C50.6417 20.6619 50.9258 20.585 51.1578 20.4311C51.3899 20.2772 51.5662 20.0559 51.687 19.767C51.8077 19.4782 51.8681 19.1326 51.8681 18.7301C51.8681 18.3371 51.8089 17.9903 51.6905 17.6896C51.5721 17.389 51.397 17.1534 51.165 16.983C50.9329 16.8125 50.6465 16.7273 50.3056 16.7273C49.9505 16.7273 49.6545 16.8172 49.4178 16.9972C49.1834 17.1771 49.007 17.4186 48.8887 17.7216C48.7727 18.0246 48.7147 18.3608 48.7147 18.7301C48.7147 19.1089 48.7739 19.4439 48.8922 19.7351C49.013 20.0239 49.1905 20.2512 49.4249 20.4169C49.6616 20.5803 49.9552 20.6619 50.3056 20.6619ZM55.0641 14.2273V21.5H54.226V14.2273H55.0641ZM58.886 21.6136C58.3604 21.6136 57.9071 21.4976 57.5259 21.2656C57.1471 21.0312 56.8548 20.7045 56.6488 20.2855C56.4452 19.8641 56.3434 19.3741 56.3434 18.8153C56.3434 18.2566 56.4452 17.7642 56.6488 17.3381C56.8548 16.9096 57.1412 16.5758 57.5082 16.3366C57.8775 16.0952 58.3084 15.9744 58.8008 15.9744C59.0849 15.9744 59.3654 16.0218 59.6424 16.1165C59.9194 16.2112 60.1715 16.3651 60.3988 16.5781C60.6261 16.7888 60.8072 17.0682 60.9421 17.4162C61.0771 17.7642 61.1445 18.1927 61.1445 18.7017V19.0568H56.94V18.3324H60.2923C60.2923 18.0246 60.2307 17.75 60.1076 17.5085C59.9869 17.267 59.814 17.0765 59.5891 16.9368C59.3666 16.7971 59.1038 16.7273 58.8008 16.7273C58.467 16.7273 58.1781 16.8101 57.9343 16.9759C57.6928 17.1392 57.507 17.3523 57.3768 17.6151C57.2466 17.8778 57.1815 18.1596 57.1815 18.4602V18.9432C57.1815 19.3551 57.2525 19.7043 57.3945 19.9908C57.5389 20.2749 57.739 20.4915 57.9947 20.6406C58.2504 20.7874 58.5475 20.8608 58.886 20.8608C59.1062 20.8608 59.305 20.83 59.4826 20.7685C59.6625 20.7045 59.8176 20.6098 59.9478 20.4844C60.078 20.3565 60.1786 20.1979 60.2496 20.0085L61.0593 20.2358C60.9741 20.5104 60.8308 20.7519 60.6296 20.9602C60.4284 21.1662 60.1798 21.3272 59.8839 21.4432C59.5879 21.5568 59.2553 21.6136 58.886 21.6136Z" fill="black"/>
</svg>
