<svg width="110" height="35" viewBox="0 0 110 35" fill="none" xmlns="http://www.w3.org/2000/svg">
<rect x="6.5" y="12" width="11" height="11" stroke="black"/>
<path d="M9 14H9.98611L11.9583 17.2676H12.0417L14.0139 14H15L12.4306 18.1152V21H11.5694V18.1152L9 14Z" fill="black"/>
<path d="M28.2557 14.2273H29.2642L31.2812 17.6222H31.3665L33.3835 14.2273H34.392L31.7642 18.5028V21.5H30.8835V18.5028L28.2557 14.2273ZM36.3097 21.6278C35.964 21.6278 35.6503 21.5627 35.3686 21.4325C35.0869 21.3 34.8632 21.1094 34.6974 20.8608C34.5317 20.6098 34.4489 20.3068 34.4489 19.9517C34.4489 19.6392 34.5104 19.3859 34.6335 19.1918C34.7566 18.9953 34.9212 18.8414 35.1271 18.7301C35.3331 18.6188 35.5604 18.536 35.8089 18.4815C36.0599 18.4247 36.312 18.3797 36.5653 18.3466C36.8968 18.304 37.1655 18.272 37.3714 18.2507C37.5798 18.227 37.7313 18.188 37.826 18.1335C37.9231 18.0791 37.9716 17.9844 37.9716 17.8494V17.821C37.9716 17.4706 37.8757 17.1984 37.6839 17.0043C37.4946 16.8101 37.2069 16.7131 36.821 16.7131C36.4209 16.7131 36.1072 16.8007 35.88 16.9759C35.6527 17.151 35.4929 17.3381 35.4006 17.5369L34.6051 17.2528C34.7472 16.9214 34.9366 16.6634 35.1733 16.4787C35.4124 16.2917 35.6728 16.1615 35.9545 16.0881C36.2386 16.0123 36.518 15.9744 36.7926 15.9744C36.9678 15.9744 37.169 15.9957 37.3963 16.0384C37.6259 16.0786 37.8473 16.1626 38.0604 16.2905C38.2758 16.4183 38.4545 16.6113 38.5966 16.8693C38.7386 17.1274 38.8097 17.473 38.8097 17.9062V21.5H37.9716V20.7614H37.929C37.8722 20.8797 37.7775 21.0064 37.6449 21.1413C37.5123 21.2763 37.3359 21.3911 37.1158 21.4858C36.8956 21.5805 36.6269 21.6278 36.3097 21.6278ZM36.4375 20.875C36.7689 20.875 37.0483 20.8099 37.2756 20.6797C37.5052 20.5495 37.678 20.3814 37.794 20.1754C37.9124 19.9695 37.9716 19.7528 37.9716 19.5256V18.7585C37.9361 18.8011 37.858 18.8402 37.7372 18.8757C37.6188 18.9089 37.4815 18.9384 37.3253 18.9645C37.1714 18.9882 37.0211 19.0095 36.8743 19.0284C36.7299 19.045 36.6127 19.0592 36.5227 19.071C36.3049 19.0994 36.1013 19.1456 35.9119 19.2095C35.7249 19.2711 35.5734 19.3646 35.4574 19.4901C35.3438 19.6132 35.2869 19.7812 35.2869 19.9943C35.2869 20.2855 35.3946 20.5057 35.6101 20.6548C35.8279 20.8016 36.1037 20.875 36.4375 20.875ZM41.1774 18.2188V21.5H40.3393V14.2273H41.1774V16.8977H41.2484C41.3762 16.616 41.568 16.3923 41.8237 16.2266C42.0817 16.0585 42.425 15.9744 42.8535 15.9744C43.2252 15.9744 43.5507 16.049 43.8301 16.1982C44.1094 16.3449 44.3261 16.571 44.4799 16.8764C44.6362 17.1795 44.7143 17.5653 44.7143 18.0341V21.5H43.8762V18.0909C43.8762 17.6577 43.7638 17.3227 43.5389 17.0859C43.3163 16.8468 43.0074 16.7273 42.612 16.7273C42.3374 16.7273 42.0912 16.7853 41.8734 16.9013C41.658 17.0173 41.4875 17.1866 41.362 17.4091C41.2389 17.6316 41.1774 17.9015 41.1774 18.2188ZM48.4634 21.6136C47.971 21.6136 47.5389 21.4964 47.1673 21.2621C46.7979 21.0277 46.5091 20.6998 46.3008 20.2784C46.0948 19.857 45.9918 19.3646 45.9918 18.8011C45.9918 18.233 46.0948 17.737 46.3008 17.3132C46.5091 16.8894 46.7979 16.5604 47.1673 16.326C47.5389 16.0916 47.971 15.9744 48.4634 15.9744C48.9558 15.9744 49.3867 16.0916 49.756 16.326C50.1277 16.5604 50.4165 16.8894 50.6225 17.3132C50.8308 17.737 50.935 18.233 50.935 18.8011C50.935 19.3646 50.8308 19.857 50.6225 20.2784C50.4165 20.6998 50.1277 21.0277 49.756 21.2621C49.3867 21.4964 48.9558 21.6136 48.4634 21.6136ZM48.4634 20.8608C48.8375 20.8608 49.1452 20.7649 49.3867 20.5732C49.6282 20.3814 49.8069 20.1293 49.9229 19.8168C50.0389 19.5043 50.0969 19.1657 50.0969 18.8011C50.0969 18.4366 50.0389 18.0968 49.9229 17.782C49.8069 17.4671 49.6282 17.2126 49.3867 17.0185C49.1452 16.8243 48.8375 16.7273 48.4634 16.7273C48.0894 16.7273 47.7816 16.8243 47.5401 17.0185C47.2987 17.2126 47.1199 17.4671 47.0039 17.782C46.8879 18.0968 46.8299 18.4366 46.8299 18.8011C46.8299 19.1657 46.8879 19.5043 47.0039 19.8168C47.1199 20.1293 47.2987 20.3814 47.5401 20.5732C47.7816 20.7649 48.0894 20.8608 48.4634 20.8608ZM54.4302 21.6136C53.9378 21.6136 53.5057 21.4964 53.1341 21.2621C52.7647 21.0277 52.4759 20.6998 52.2676 20.2784C52.0616 19.857 51.9586 19.3646 51.9586 18.8011C51.9586 18.233 52.0616 17.737 52.2676 17.3132C52.4759 16.8894 52.7647 16.5604 53.1341 16.326C53.5057 16.0916 53.9378 15.9744 54.4302 15.9744C54.9226 15.9744 55.3535 16.0916 55.7228 16.326C56.0945 16.5604 56.3833 16.8894 56.5893 17.3132C56.7976 17.737 56.9018 18.233 56.9018 18.8011C56.9018 19.3646 56.7976 19.857 56.5893 20.2784C56.3833 20.6998 56.0945 21.0277 55.7228 21.2621C55.3535 21.4964 54.9226 21.6136 54.4302 21.6136ZM54.4302 20.8608C54.8043 20.8608 55.112 20.7649 55.3535 20.5732C55.595 20.3814 55.7737 20.1293 55.8897 19.8168C56.0057 19.5043 56.0637 19.1657 56.0637 18.8011C56.0637 18.4366 56.0057 18.0968 55.8897 17.782C55.7737 17.4671 55.595 17.2126 55.3535 17.0185C55.112 16.8243 54.8043 16.7273 54.4302 16.7273C54.0562 16.7273 53.7484 16.8243 53.5069 17.0185C53.2654 17.2126 53.0867 17.4671 52.9707 17.782C52.8547 18.0968 52.7967 18.4366 52.7967 18.8011C52.7967 19.1657 52.8547 19.5043 52.9707 19.8168C53.0867 20.1293 53.2654 20.3814 53.5069 20.5732C53.7484 20.7649 54.0562 20.8608 54.4302 20.8608Z" fill="black"/>
</svg>
