<svg width="108" height="14" viewBox="0 0 108 14" fill="none" xmlns="http://www.w3.org/2000/svg">
<path d="M10.7134 6.25479C10.6693 6.12412 10.6113 6.00702 10.5392 5.90352C10.4684 5.79872 10.3837 5.70944 10.2849 5.6357C10.1875 5.56195 10.0767 5.50566 9.95252 5.46685C9.82838 5.42803 9.69222 5.40863 9.54405 5.40863C9.30111 5.40863 9.08019 5.46944 8.88129 5.59106C8.6824 5.71268 8.52422 5.89187 8.40675 6.12865C8.28928 6.36542 8.23055 6.65588 8.23055 7.00004C8.23055 7.3442 8.28995 7.63467 8.40875 7.87144C8.52756 8.10821 8.68841 8.2874 8.8913 8.40902C9.0942 8.53064 9.32246 8.59145 9.57609 8.59145C9.81102 8.59145 10.0179 8.54294 10.1968 8.4459C10.377 8.34757 10.5172 8.20913 10.6173 8.03058C10.7187 7.85074 10.7695 7.63919 10.7695 7.39595L10.9216 7.42701H9.68822V7.00004H11.25V7.42701C11.25 7.75434 11.1779 8.03899 11.0338 8.28093C10.8909 8.52288 10.6934 8.71049 10.4411 8.84375C10.1901 8.97572 9.90179 9.04171 9.57609 9.04171C9.21301 9.04171 8.89397 8.9589 8.61899 8.79329C8.34535 8.62768 8.13177 8.3922 7.97826 8.08686C7.82609 7.78152 7.75 7.41924 7.75 7.00004C7.75 6.68564 7.79338 6.40294 7.88015 6.15193C7.96825 5.89964 8.09239 5.68486 8.25257 5.50761C8.41276 5.33035 8.60231 5.1945 8.82122 5.10005C9.04014 5.0056 9.28108 4.95837 9.54405 4.95837C9.7603 4.95837 9.96186 4.99007 10.1487 5.05347C10.337 5.11557 10.5045 5.2042 10.6513 5.31935C10.7995 5.43321 10.923 5.56971 11.0217 5.72885C11.1205 5.8867 11.1886 6.06201 11.226 6.25479H10.7134Z" fill="black"/>
<rect x="6.5" y="4" width="6" height="6" stroke="black"/>
<path d="M22.5114 6.5C22.4645 6.35653 22.4027 6.22798 22.326 6.11435C22.2507 5.99929 22.1605 5.90128 22.0554 5.82031C21.9517 5.73935 21.8338 5.67756 21.7017 5.63494C21.5696 5.59233 21.4247 5.57102 21.267 5.57102C21.0085 5.57102 20.7734 5.63778 20.5618 5.77131C20.3501 5.90483 20.1818 6.10156 20.0568 6.36151C19.9318 6.62145 19.8693 6.94034 19.8693 7.31818C19.8693 7.69602 19.9325 8.01491 20.0589 8.27486C20.1854 8.5348 20.3565 8.73153 20.5724 8.86506C20.7884 8.99858 21.0313 9.06534 21.3011 9.06534C21.5511 9.06534 21.7713 9.01207 21.9616 8.90554C22.1534 8.79759 22.3026 8.6456 22.4091 8.44957C22.517 8.25213 22.571 8.01989 22.571 7.75284L22.733 7.78693H21.4205V7.31818H23.0824V7.78693C23.0824 8.14631 23.0057 8.45881 22.8523 8.72443C22.7003 8.99006 22.4901 9.19602 22.2216 9.34233C21.9545 9.48722 21.6477 9.55966 21.3011 9.55966C20.9148 9.55966 20.5753 9.46875 20.2827 9.28693C19.9915 9.10511 19.7642 8.84659 19.6009 8.51136C19.4389 8.17614 19.358 7.77841 19.358 7.31818C19.358 6.97301 19.4041 6.66264 19.4964 6.38707C19.5902 6.11009 19.7223 5.87429 19.8928 5.67969C20.0632 5.48509 20.2649 5.33594 20.4979 5.23224C20.7308 5.12855 20.9872 5.0767 21.267 5.0767C21.4972 5.0767 21.7116 5.11151 21.9105 5.18111C22.1108 5.24929 22.2891 5.34659 22.4453 5.47301C22.603 5.59801 22.7344 5.74787 22.8395 5.92259C22.9446 6.09588 23.017 6.28835 23.0568 6.5H22.5114ZM25.2488 9.56818C24.9533 9.56818 24.6941 9.49787 24.4711 9.35724C24.2495 9.21662 24.0762 9.01989 23.9512 8.76705C23.8276 8.5142 23.7658 8.21875 23.7658 7.88068C23.7658 7.53977 23.8276 7.24219 23.9512 6.98793C24.0762 6.73366 24.2495 6.53622 24.4711 6.3956C24.6941 6.25497 24.9533 6.18466 25.2488 6.18466C25.5442 6.18466 25.8027 6.25497 26.0243 6.3956C26.2473 6.53622 26.4206 6.73366 26.5442 6.98793C26.6692 7.24219 26.7317 7.53977 26.7317 7.88068C26.7317 8.21875 26.6692 8.5142 26.5442 8.76705C26.4206 9.01989 26.2473 9.21662 26.0243 9.35724C25.8027 9.49787 25.5442 9.56818 25.2488 9.56818ZM25.2488 9.11648C25.4732 9.11648 25.6578 9.05895 25.8027 8.94389C25.9476 8.82884 26.0549 8.67756 26.1245 8.49006C26.1941 8.30256 26.2289 8.09943 26.2289 7.88068C26.2289 7.66193 26.1941 7.4581 26.1245 7.26918C26.0549 7.08026 25.9476 6.92756 25.8027 6.81108C25.6578 6.6946 25.4732 6.63636 25.2488 6.63636C25.0243 6.63636 24.8397 6.6946 24.6948 6.81108C24.5499 6.92756 24.4426 7.08026 24.373 7.26918C24.3034 7.4581 24.2686 7.66193 24.2686 7.88068C24.2686 8.09943 24.3034 8.30256 24.373 8.49006C24.4426 8.67756 24.5499 8.82884 24.6948 8.94389C24.8397 9.05895 25.0243 9.11648 25.2488 9.11648ZM28.8288 9.56818C28.5334 9.56818 28.2741 9.49787 28.0511 9.35724C27.8295 9.21662 27.6562 9.01989 27.5312 8.76705C27.4077 8.5142 27.3459 8.21875 27.3459 7.88068C27.3459 7.53977 27.4077 7.24219 27.5312 6.98793C27.6562 6.73366 27.8295 6.53622 28.0511 6.3956C28.2741 6.25497 28.5334 6.18466 28.8288 6.18466C29.1243 6.18466 29.3828 6.25497 29.6044 6.3956C29.8274 6.53622 30.0007 6.73366 30.1243 6.98793C30.2493 7.24219 30.3118 7.53977 30.3118 7.88068C30.3118 8.21875 30.2493 8.5142 30.1243 8.76705C30.0007 9.01989 29.8274 9.21662 29.6044 9.35724C29.3828 9.49787 29.1243 9.56818 28.8288 9.56818ZM28.8288 9.11648C29.0533 9.11648 29.2379 9.05895 29.3828 8.94389C29.5277 8.82884 29.6349 8.67756 29.7045 8.49006C29.7741 8.30256 29.8089 8.09943 29.8089 7.88068C29.8089 7.66193 29.7741 7.4581 29.7045 7.26918C29.6349 7.08026 29.5277 6.92756 29.3828 6.81108C29.2379 6.6946 29.0533 6.63636 28.8288 6.63636C28.6044 6.63636 28.4197 6.6946 28.2749 6.81108C28.13 6.92756 28.0227 7.08026 27.9531 7.26918C27.8835 7.4581 27.8487 7.66193 27.8487 7.88068C27.8487 8.09943 27.8835 8.30256 27.9531 8.49006C28.0227 8.67756 28.13 8.82884 28.2749 8.94389C28.4197 9.05895 28.6044 9.11648 28.8288 9.11648ZM32.4004 10.7955C32.1575 10.7955 31.9487 10.7642 31.774 10.7017C31.5993 10.6406 31.4537 10.5597 31.3372 10.4588C31.2221 10.3594 31.1305 10.2528 31.0623 10.1392L31.4629 9.85795C31.5083 9.91761 31.5659 9.9858 31.6355 10.0625C31.7051 10.1406 31.8002 10.2081 31.921 10.2649C32.0431 10.3232 32.2029 10.3523 32.4004 10.3523C32.6646 10.3523 32.8826 10.2884 33.0545 10.1605C33.2264 10.0327 33.3123 9.83239 33.3123 9.55966V8.89489H33.2697C33.2328 8.95455 33.1802 9.02841 33.112 9.11648C33.0453 9.20312 32.9487 9.28054 32.8223 9.34872C32.6973 9.41548 32.5282 9.44886 32.3152 9.44886C32.051 9.44886 31.8137 9.38636 31.6035 9.26136C31.3947 9.13636 31.2292 8.95455 31.1071 8.71591C30.9863 8.47727 30.926 8.1875 30.926 7.84659C30.926 7.51136 30.9849 7.21946 31.1028 6.97088C31.2207 6.72088 31.3848 6.5277 31.595 6.39134C31.8052 6.25355 32.0481 6.18466 32.3237 6.18466C32.5368 6.18466 32.7058 6.22017 32.8308 6.29119C32.9572 6.3608 33.0538 6.44034 33.1206 6.52983C33.1887 6.6179 33.2413 6.69034 33.2782 6.74716H33.3294V6.22727H33.8152V9.59375C33.8152 9.875 33.7512 10.1037 33.6234 10.2798C33.497 10.4574 33.3265 10.5874 33.112 10.6697C32.899 10.7536 32.6618 10.7955 32.4004 10.7955ZM32.3833 8.99716C32.585 8.99716 32.7555 8.95099 32.8947 8.85866C33.0339 8.76634 33.1397 8.63352 33.2122 8.46023C33.2846 8.28693 33.3208 8.07955 33.3208 7.83807C33.3208 7.60227 33.2853 7.39418 33.2143 7.21378C33.1433 7.03338 33.0382 6.89205 32.899 6.78977C32.7598 6.6875 32.5879 6.63636 32.3833 6.63636C32.1703 6.63636 31.9927 6.69034 31.8507 6.7983C31.71 6.90625 31.6042 7.05114 31.5332 7.23295C31.4636 7.41477 31.4288 7.61648 31.4288 7.83807C31.4288 8.06534 31.4643 8.26634 31.5353 8.44105C31.6078 8.61435 31.7143 8.75071 31.8549 8.85014C31.997 8.94815 32.1731 8.99716 32.3833 8.99716ZM35.2385 5.13636V9.5H34.7356V5.13636H35.2385ZM37.5316 9.56818C37.2163 9.56818 36.9442 9.49858 36.7156 9.35938C36.4883 9.21875 36.3129 9.02273 36.1893 8.77131C36.0671 8.51847 36.006 8.22443 36.006 7.8892C36.006 7.55398 36.0671 7.25852 36.1893 7.00284C36.3129 6.74574 36.4847 6.54545 36.7049 6.40199C36.9265 6.2571 37.185 6.18466 37.4805 6.18466C37.6509 6.18466 37.8192 6.21307 37.9854 6.26989C38.1516 6.3267 38.3029 6.41903 38.4393 6.54688C38.5756 6.6733 38.6843 6.84091 38.7653 7.04972C38.8462 7.25852 38.8867 7.51562 38.8867 7.82102V8.03409H36.364V7.59943H38.3754C38.3754 7.41477 38.3384 7.25 38.2646 7.10511C38.1921 6.96023 38.0884 6.84588 37.9535 6.76207C37.82 6.67827 37.6623 6.63636 37.4805 6.63636C37.2802 6.63636 37.1069 6.68608 36.9606 6.78551C36.8157 6.88352 36.7042 7.01136 36.6261 7.16903C36.5479 7.3267 36.5089 7.49574 36.5089 7.67614V7.96591C36.5089 8.21307 36.5515 8.42259 36.6367 8.59446C36.7234 8.76491 36.8434 8.89489 36.9968 8.98438C37.1502 9.07244 37.3285 9.11648 37.5316 9.11648C37.6637 9.11648 37.783 9.09801 37.8896 9.06108C37.9975 9.02273 38.0906 8.96591 38.1687 8.89062C38.2468 8.81392 38.3072 8.71875 38.3498 8.60511L38.8356 8.74148C38.7844 8.90625 38.6985 9.05114 38.5778 9.17614C38.457 9.29972 38.3079 9.39631 38.1303 9.46591C37.9528 9.53409 37.7532 9.56818 37.5316 9.56818Z" fill="black"/>
</svg>
