<svg width="108" height="14" viewBox="0 0 108 14" fill="none" xmlns="http://www.w3.org/2000/svg">
<rect x="6.5" y="4" width="6" height="6" stroke="black"/>
<path d="M8.04163 9.04171V4.95837H9.50815C9.80037 4.95837 10.0414 5.00755 10.2312 5.10592C10.421 5.20295 10.5623 5.33388 10.6552 5.4987C10.748 5.66219 10.7944 5.84363 10.7944 6.04301C10.7944 6.21847 10.7623 6.36335 10.6982 6.47766C10.6354 6.59197 10.5521 6.68236 10.4483 6.74882C10.3459 6.81528 10.2346 6.86446 10.1144 6.89636V6.93624C10.2428 6.94421 10.3718 6.98808 10.5015 7.06783C10.6313 7.14758 10.7398 7.2619 10.8272 7.41077C10.9146 7.55964 10.9583 7.74174 10.9583 7.95707C10.9583 8.16177 10.9105 8.34587 10.8149 8.50936C10.7193 8.67285 10.5684 8.80245 10.3623 8.89815C10.1561 8.99386 9.88776 9.04171 9.55731 9.04171H8.04163ZM8.54958 8.60307H9.55731C9.88912 8.60307 10.1247 8.5406 10.2639 8.41565C10.4046 8.28937 10.4749 8.13652 10.4749 7.95707C10.4749 7.81883 10.4387 7.69123 10.3664 7.57426C10.294 7.45596 10.1909 7.36159 10.0571 7.29114C9.92326 7.21936 9.76486 7.18347 9.58189 7.18347H8.54958V8.60307ZM8.54958 6.75281H9.49177C9.6447 6.75281 9.78261 6.72357 9.90551 6.66508C10.0298 6.60659 10.1281 6.52418 10.2005 6.41785C10.2742 6.31151 10.3111 6.18656 10.3111 6.04301C10.3111 5.86357 10.2469 5.71137 10.1185 5.58643C9.99017 5.46015 9.78671 5.39701 9.50815 5.39701H8.54958V6.75281Z" fill="black"/>
<path d="M19.5284 9.5V5.13636H21.054C21.358 5.13636 21.6087 5.18892 21.8061 5.29403C22.0036 5.39773 22.1506 5.53764 22.2472 5.71378C22.3438 5.88849 22.392 6.08239 22.392 6.29545C22.392 6.48295 22.3587 6.63778 22.2919 6.75994C22.2266 6.8821 22.1399 6.97869 22.032 7.04972C21.9254 7.12074 21.8097 7.1733 21.6847 7.20739V7.25C21.8182 7.25852 21.9524 7.3054 22.0874 7.39062C22.2223 7.47585 22.3352 7.59801 22.4261 7.7571C22.517 7.91619 22.5625 8.1108 22.5625 8.34091C22.5625 8.55966 22.5128 8.75639 22.4134 8.93111C22.3139 9.10582 22.157 9.24432 21.9425 9.34659C21.728 9.44886 21.4489 9.5 21.1051 9.5H19.5284ZM20.0568 9.03125H21.1051C21.4503 9.03125 21.6953 8.96449 21.8402 8.83097C21.9865 8.69602 22.0597 8.53267 22.0597 8.34091C22.0597 8.19318 22.022 8.05682 21.9467 7.93182C21.8714 7.8054 21.7642 7.70455 21.625 7.62926C21.4858 7.55256 21.321 7.5142 21.1307 7.5142H20.0568V9.03125ZM20.0568 7.05398H21.0369C21.196 7.05398 21.3395 7.02273 21.4673 6.96023C21.5966 6.89773 21.6989 6.80966 21.7741 6.69602C21.8509 6.58239 21.8892 6.44886 21.8892 6.29545C21.8892 6.10369 21.8224 5.94105 21.6889 5.80753C21.5554 5.67259 21.3438 5.60511 21.054 5.60511H20.0568V7.05398ZM24.3256 9.5767C24.1183 9.5767 23.93 9.53764 23.761 9.45952C23.592 9.37997 23.4577 9.26562 23.3583 9.11648C23.2589 8.96591 23.2092 8.78409 23.2092 8.57102C23.2092 8.38352 23.2461 8.23153 23.32 8.11506C23.3938 7.99716 23.4925 7.90483 23.6161 7.83807C23.7397 7.77131 23.8761 7.72159 24.0252 7.68892C24.1758 7.65483 24.3271 7.62784 24.479 7.60795C24.6779 7.58239 24.8391 7.56321 24.9627 7.55043C25.0877 7.53622 25.1786 7.51278 25.2354 7.48011C25.2937 7.44744 25.3228 7.39062 25.3228 7.30966V7.29261C25.3228 7.08239 25.2653 6.91903 25.1502 6.80256C25.0366 6.68608 24.864 6.62784 24.6325 6.62784C24.3924 6.62784 24.2042 6.6804 24.0678 6.78551C23.9315 6.89062 23.8356 7.00284 23.7802 7.12216L23.3029 6.9517C23.3881 6.75284 23.5018 6.59801 23.6438 6.48722C23.7873 6.375 23.9435 6.29687 24.1126 6.25284C24.283 6.20739 24.4506 6.18466 24.6154 6.18466C24.7205 6.18466 24.8413 6.19744 24.9776 6.22301C25.1154 6.24716 25.2482 6.29759 25.3761 6.37429C25.5053 6.45099 25.6126 6.56676 25.6978 6.72159C25.783 6.87642 25.8256 7.08381 25.8256 7.34375V9.5H25.3228V9.05682H25.2972C25.2631 9.12784 25.2063 9.20384 25.1268 9.2848C25.0472 9.36577 24.9414 9.43466 24.8093 9.49148C24.6772 9.5483 24.516 9.5767 24.3256 9.5767ZM24.4023 9.125C24.6012 9.125 24.7688 9.08594 24.9052 9.00781C25.043 8.92969 25.1467 8.82884 25.2163 8.70526C25.2873 8.58168 25.3228 8.4517 25.3228 8.31534V7.85511C25.3015 7.88068 25.2546 7.90412 25.1822 7.92543C25.1112 7.94531 25.0288 7.96307 24.935 7.97869C24.8427 7.9929 24.7525 8.00568 24.6644 8.01705C24.5778 8.02699 24.5075 8.03551 24.4535 8.04261C24.3228 8.05966 24.2006 8.08736 24.087 8.12571C23.9748 8.16264 23.8839 8.21875 23.8143 8.29403C23.7461 8.3679 23.712 8.46875 23.712 8.59659C23.712 8.77131 23.7766 8.90341 23.9059 8.9929C24.0366 9.08097 24.2021 9.125 24.4023 9.125ZM26.7434 9.5V6.22727H27.2463V9.5H26.7434ZM26.9991 5.68182C26.9011 5.68182 26.8166 5.64844 26.7456 5.58168C26.676 5.51491 26.6412 5.43466 26.6412 5.34091C26.6412 5.24716 26.676 5.1669 26.7456 5.10014C26.8166 5.03338 26.9011 5 26.9991 5C27.0971 5 27.1809 5.03338 27.2505 5.10014C27.3216 5.1669 27.3571 5.24716 27.3571 5.34091C27.3571 5.43466 27.3216 5.51491 27.2505 5.58168C27.1809 5.64844 27.0971 5.68182 26.9991 5.68182ZM29.4031 9.56818C29.1303 9.56818 28.8896 9.49929 28.6808 9.36151C28.4719 9.2223 28.3086 9.02628 28.1907 8.77344C28.0728 8.51918 28.0138 8.21875 28.0138 7.87216C28.0138 7.52841 28.0728 7.23011 28.1907 6.97727C28.3086 6.72443 28.4727 6.52912 28.6829 6.39134C28.8931 6.25355 29.136 6.18466 29.4116 6.18466C29.6246 6.18466 29.793 6.22017 29.9165 6.29119C30.0415 6.3608 30.1367 6.44034 30.2021 6.52983C30.2688 6.6179 30.3207 6.69034 30.3576 6.74716H30.4002V5.13636H30.9031V9.5H30.4173V8.99716H30.3576C30.3207 9.05682 30.2681 9.1321 30.1999 9.22301C30.1317 9.3125 30.0344 9.39276 29.908 9.46378C29.7816 9.53338 29.6133 9.56818 29.4031 9.56818ZM29.4712 9.11648C29.6729 9.11648 29.8434 9.06392 29.9826 8.95881C30.1218 8.85227 30.2276 8.70526 30.3001 8.51776C30.3725 8.32884 30.4087 8.1108 30.4087 7.86364C30.4087 7.61932 30.3732 7.40554 30.3022 7.2223C30.2312 7.03764 30.1261 6.89418 29.9869 6.7919C29.8477 6.68821 29.6758 6.63636 29.4712 6.63636C29.2582 6.63636 29.0806 6.69105 28.9386 6.80043C28.7979 6.90838 28.6921 7.0554 28.6211 7.24148C28.5515 7.42614 28.5167 7.63352 28.5167 7.86364C28.5167 8.09659 28.5522 8.30824 28.6232 8.49858C28.6957 8.6875 28.8022 8.83807 28.9428 8.95028C29.0849 9.06108 29.261 9.11648 29.4712 9.11648ZM33.9563 8.16193V6.22727H34.4592V9.5H33.9563V8.94602H33.9222C33.8455 9.11222 33.7262 9.25355 33.5643 9.37003C33.4023 9.48509 33.1978 9.54261 32.9506 9.54261C32.7461 9.54261 32.5643 9.49787 32.4052 9.40838C32.2461 9.31747 32.1211 9.18111 32.0302 8.99929C31.9393 8.81605 31.8938 8.58523 31.8938 8.30682V6.22727H32.3967V8.27273C32.3967 8.51136 32.4634 8.7017 32.5969 8.84375C32.7319 8.9858 32.9038 9.05682 33.1126 9.05682C33.2376 9.05682 33.3647 9.02486 33.494 8.96094C33.6246 8.89702 33.734 8.79901 33.8221 8.6669C33.9116 8.5348 33.9563 8.36648 33.9563 8.16193Z" fill="black"/>
</svg>
