<svg width="110" height="35" viewBox="0 0 110 35" fill="none" xmlns="http://www.w3.org/2000/svg">
<rect x="6.5" y="12" width="11" height="11" stroke="black"/>
<path d="M11.6583 21H9.30005V14H11.7627C12.504 14 13.1384 14.1401 13.6657 14.4204C14.1931 14.6984 14.5973 15.0983 14.8784 15.6201C15.1595 16.1396 15.3 16.7617 15.3 17.4863C15.3 18.2155 15.1583 18.8433 14.8747 19.3696C14.5911 19.8937 14.1782 20.297 13.6359 20.5796C13.0936 20.8599 12.4344 21 11.6583 21ZM10.2254 20.248H11.5986C12.2304 20.248 12.754 20.1364 13.1695 19.9131C13.5849 19.6898 13.8946 19.3719 14.0986 18.9595C14.3025 18.547 14.4045 18.056 14.4045 17.4863C14.4045 16.9212 14.3038 16.4347 14.1023 16.0269C13.9008 15.6167 13.5998 15.3022 13.1993 15.0835C12.7988 14.8625 12.3 14.752 11.703 14.752H10.2254V20.248Z" fill="black"/>
<path d="M31.125 21.5H28.8807V14.2273H31.2244C31.9299 14.2273 32.5336 14.3729 33.0355 14.6641C33.5374 14.9529 33.9221 15.3684 34.1896 15.9105C34.4571 16.4503 34.5909 17.0966 34.5909 17.8494C34.5909 18.607 34.456 19.2592 34.1861 19.8061C33.9162 20.3506 33.5232 20.7696 33.0071 21.0632C32.491 21.3544 31.8636 21.5 31.125 21.5ZM29.7614 20.7188H31.0682C31.6695 20.7188 32.1679 20.6027 32.5632 20.3707C32.9586 20.1387 33.2533 19.8085 33.4474 19.38C33.6416 18.9515 33.7386 18.4413 33.7386 17.8494C33.7386 17.2623 33.6428 16.7569 33.451 16.3331C33.2592 15.907 32.9728 15.5803 32.5916 15.353C32.2105 15.1233 31.7358 15.0085 31.1676 15.0085H29.7614V20.7188ZM39.392 19.2699V16.0455H40.2301V21.5H39.392V20.5767H39.3352C39.2074 20.8537 39.0085 21.0893 38.7386 21.2834C38.4688 21.4751 38.1278 21.571 37.7159 21.571C37.375 21.571 37.072 21.4964 36.8068 21.3473C36.5417 21.1958 36.3333 20.9685 36.1818 20.6655C36.0303 20.3601 35.9545 19.9754 35.9545 19.5114V16.0455H36.7926V19.4545C36.7926 19.8523 36.9039 20.1695 37.1264 20.4062C37.3513 20.643 37.6378 20.7614 37.9858 20.7614C38.1941 20.7614 38.406 20.7081 38.6214 20.6016C38.8393 20.495 39.0215 20.3317 39.1683 20.1115C39.3175 19.8913 39.392 19.6108 39.392 19.2699ZM43.981 21.6136C43.4696 21.6136 43.0293 21.4929 42.66 21.2514C42.2907 21.0099 42.0066 20.6773 41.8077 20.2536C41.6088 19.8298 41.5094 19.3456 41.5094 18.8011C41.5094 18.2472 41.6112 17.7583 41.8148 17.3345C42.0208 16.9084 42.3072 16.5758 42.6742 16.3366C43.0435 16.0952 43.4744 15.9744 43.9668 15.9744C44.3503 15.9744 44.696 16.0455 45.0037 16.1875C45.3115 16.3295 45.5636 16.5284 45.7601 16.7841C45.9566 17.0398 46.0785 17.3381 46.1259 17.679H45.2878C45.2239 17.4304 45.0819 17.2102 44.8617 17.0185C44.6439 16.8243 44.3503 16.7273 43.981 16.7273C43.6543 16.7273 43.3678 16.8125 43.1216 16.983C42.8778 17.151 42.6872 17.389 42.5499 17.6967C42.415 18.0021 42.3475 18.3608 42.3475 18.7727C42.3475 19.1941 42.4138 19.5611 42.5463 19.8736C42.6813 20.1861 42.8707 20.4287 43.1145 20.6016C43.3607 20.7744 43.6496 20.8608 43.981 20.8608C44.1988 20.8608 44.3965 20.8229 44.574 20.7472C44.7516 20.6714 44.9019 20.5625 45.025 20.4205C45.1481 20.2784 45.2357 20.108 45.2878 19.9091H46.1259C46.0785 20.2311 45.9614 20.5211 45.7743 20.7791C45.5897 21.0348 45.3446 21.2384 45.0392 21.3899C44.7362 21.5391 44.3835 21.6136 43.981 21.6136ZM48.1323 19.5114L48.1181 18.4744H48.2885L50.6749 16.0455H51.7118L49.1692 18.6165H49.0982L48.1323 19.5114ZM47.351 21.5V14.2273H48.1891V21.5H47.351ZM50.8169 21.5L48.6863 18.8011L49.2828 18.2188L51.8823 21.5H50.8169ZM55.1484 21.5H52.9041V14.2273H55.2479C55.9534 14.2273 56.5571 14.3729 57.0589 14.6641C57.5608 14.9529 57.9455 15.3684 58.2131 15.9105C58.4806 16.4503 58.6143 17.0966 58.6143 17.8494C58.6143 18.607 58.4794 19.2592 58.2095 19.8061C57.9396 20.3506 57.5466 20.7696 57.0305 21.0632C56.5144 21.3544 55.8871 21.5 55.1484 21.5ZM53.7848 20.7188H55.0916C55.6929 20.7188 56.1913 20.6027 56.5866 20.3707C56.982 20.1387 57.2768 19.8085 57.4709 19.38C57.665 18.9515 57.7621 18.4413 57.7621 17.8494C57.7621 17.2623 57.6662 16.7569 57.4744 16.3331C57.2827 15.907 56.9962 15.5803 56.6151 15.353C56.2339 15.1233 55.7592 15.0085 55.1911 15.0085H53.7848V20.7188ZM63.4155 19.2699V16.0455H64.2536V21.5H63.4155V20.5767H63.3587C63.2308 20.8537 63.032 21.0893 62.7621 21.2834C62.4922 21.4751 62.1513 21.571 61.7393 21.571C61.3984 21.571 61.0954 21.4964 60.8303 21.3473C60.5651 21.1958 60.3568 20.9685 60.2053 20.6655C60.0537 20.3601 59.978 19.9754 59.978 19.5114V16.0455H60.8161V19.4545C60.8161 19.8523 60.9273 20.1695 61.1499 20.4062C61.3748 20.643 61.6612 20.7614 62.0092 20.7614C62.2176 20.7614 62.4295 20.7081 62.6449 20.6016C62.8627 20.495 63.045 20.3317 63.1918 20.1115C63.3409 19.8913 63.4155 19.6108 63.4155 19.2699ZM68.0044 21.6136C67.4931 21.6136 67.0527 21.4929 66.6834 21.2514C66.3141 21.0099 66.03 20.6773 65.8311 20.2536C65.6323 19.8298 65.5328 19.3456 65.5328 18.8011C65.5328 18.2472 65.6346 17.7583 65.8382 17.3345C66.0442 16.9084 66.3307 16.5758 66.6976 16.3366C67.0669 16.0952 67.4978 15.9744 67.9902 15.9744C68.3738 15.9744 68.7194 16.0455 69.0272 16.1875C69.3349 16.3295 69.5871 16.5284 69.7836 16.7841C69.9801 17.0398 70.102 17.3381 70.1493 17.679H69.3113C69.2473 17.4304 69.1053 17.2102 68.8851 17.0185C68.6673 16.8243 68.3738 16.7273 68.0044 16.7273C67.6777 16.7273 67.3913 16.8125 67.1451 16.983C66.9012 17.151 66.7106 17.389 66.5733 17.6967C66.4384 18.0021 66.3709 18.3608 66.3709 18.7727C66.3709 19.1941 66.4372 19.5611 66.5698 19.8736C66.7047 20.1861 66.8941 20.4287 67.138 20.6016C67.3842 20.7744 67.673 20.8608 68.0044 20.8608C68.2222 20.8608 68.4199 20.8229 68.5975 20.7472C68.775 20.6714 68.9254 20.5625 69.0485 20.4205C69.1716 20.2784 69.2592 20.108 69.3113 19.9091H70.1493C70.102 20.2311 69.9848 20.5211 69.7978 20.7791C69.6131 21.0348 69.3681 21.2384 69.0627 21.3899C68.7596 21.5391 68.4069 21.6136 68.0044 21.6136ZM72.1557 19.5114L72.1415 18.4744H72.312L74.6983 16.0455H75.7353L73.1926 18.6165H73.1216L72.1557 19.5114ZM71.3745 21.5V14.2273H72.2125V21.5H71.3745ZM74.8404 21.5L72.7097 18.8011L73.3063 18.2188L75.9057 21.5H74.8404ZM81.8991 16.5C81.821 16.2609 81.718 16.0466 81.5902 15.8572C81.4647 15.6655 81.3144 15.5021 81.1392 15.3672C80.9664 15.2322 80.7699 15.1293 80.5497 15.0582C80.3295 14.9872 80.0881 14.9517 79.8253 14.9517C79.3944 14.9517 79.0026 15.063 78.6499 15.2855C78.2971 15.508 78.0166 15.8359 77.8082 16.2692C77.5999 16.7024 77.4957 17.2339 77.4957 17.8636C77.4957 18.4934 77.6011 19.0249 77.8118 19.4581C78.0225 19.8913 78.3078 20.2192 78.6676 20.4418C79.0275 20.6643 79.4323 20.7756 79.8821 20.7756C80.2988 20.7756 80.6657 20.6868 80.983 20.5092C81.3026 20.3293 81.5511 20.076 81.7287 19.7493C81.9086 19.4202 81.9986 19.0331 81.9986 18.5881L82.2685 18.6449H80.081V17.8636H82.8509V18.6449C82.8509 19.2438 82.723 19.7647 82.4673 20.2074C82.214 20.6501 81.8636 20.9934 81.4162 21.2372C80.9711 21.4787 80.4598 21.5994 79.8821 21.5994C79.2382 21.5994 78.6723 21.4479 78.1847 21.1449C77.6993 20.8419 77.3205 20.411 77.0483 19.8523C76.7784 19.2936 76.6435 18.6307 76.6435 17.8636C76.6435 17.2884 76.7204 16.7711 76.8743 16.3118C77.0305 15.8501 77.2507 15.4571 77.5348 15.1328C77.8189 14.8085 78.1551 14.5599 78.5433 14.3871C78.9316 14.2143 79.3589 14.1278 79.8253 14.1278C80.2088 14.1278 80.5663 14.1858 80.8977 14.3018C81.2315 14.4155 81.5286 14.5777 81.7891 14.7884C82.0518 14.9967 82.2708 15.2464 82.446 15.5376C82.6212 15.8265 82.742 16.1473 82.8082 16.5H81.8991ZM86.4615 21.6136C85.969 21.6136 85.537 21.4964 85.1653 21.2621C84.796 21.0277 84.5072 20.6998 84.2988 20.2784C84.0929 19.857 83.9899 19.3646 83.9899 18.8011C83.9899 18.233 84.0929 17.737 84.2988 17.3132C84.5072 16.8894 84.796 16.5604 85.1653 16.326C85.537 16.0916 85.969 15.9744 86.4615 15.9744C86.9539 15.9744 87.3848 16.0916 87.7541 16.326C88.1258 16.5604 88.4146 16.8894 88.6206 17.3132C88.8289 17.737 88.9331 18.233 88.9331 18.8011C88.9331 19.3646 88.8289 19.857 88.6206 20.2784C88.4146 20.6998 88.1258 21.0277 87.7541 21.2621C87.3848 21.4964 86.9539 21.6136 86.4615 21.6136ZM86.4615 20.8608C86.8355 20.8608 87.1433 20.7649 87.3848 20.5732C87.6262 20.3814 87.805 20.1293 87.921 19.8168C88.037 19.5043 88.095 19.1657 88.095 18.8011C88.095 18.4366 88.037 18.0968 87.921 17.782C87.805 17.4671 87.6262 17.2126 87.3848 17.0185C87.1433 16.8243 86.8355 16.7273 86.4615 16.7273C86.0874 16.7273 85.7797 16.8243 85.5382 17.0185C85.2967 17.2126 85.118 17.4671 85.002 17.782C84.8859 18.0968 84.8279 18.4366 84.8279 18.8011C84.8279 19.1657 84.8859 19.5043 85.002 19.8168C85.118 20.1293 85.2967 20.3814 85.5382 20.5732C85.7797 20.7649 86.0874 20.8608 86.4615 20.8608Z" fill="black"/>
</svg>
