<svg width="108" height="14" viewBox="0 0 108 14" fill="none" xmlns="http://www.w3.org/2000/svg">
<rect x="6.5" y="4" width="6" height="6" stroke="black"/>
<path d="M7.75 4.95837H8.32523L9.47569 6.86446H9.52431L10.6748 4.95837H11.25L9.75116 7.35893V9.04171H9.24884V7.35893L7.75 4.95837Z" fill="black"/>
<path d="M19.1534 5.13636H19.7585L20.9688 7.1733H21.0199L22.2301 5.13636H22.8352L21.2585 7.7017V9.5H20.7301V7.7017L19.1534 5.13636ZM23.9858 9.5767C23.7784 9.5767 23.5902 9.53764 23.4212 9.45952C23.2521 9.37997 23.1179 9.26562 23.0185 9.11648C22.919 8.96591 22.8693 8.78409 22.8693 8.57102C22.8693 8.38352 22.9063 8.23153 22.9801 8.11506C23.054 7.99716 23.1527 7.90483 23.2763 7.83807C23.3999 7.77131 23.5362 7.72159 23.6854 7.68892C23.8359 7.65483 23.9872 7.62784 24.1392 7.60795C24.3381 7.58239 24.4993 7.56321 24.6229 7.55043C24.7479 7.53622 24.8388 7.51278 24.8956 7.48011C24.9538 7.44744 24.983 7.39062 24.983 7.30966V7.29261C24.983 7.08239 24.9254 6.91903 24.8104 6.80256C24.6967 6.68608 24.5241 6.62784 24.2926 6.62784C24.0526 6.62784 23.8643 6.6804 23.728 6.78551C23.5916 6.89062 23.4957 7.00284 23.4403 7.12216L22.9631 6.9517C23.0483 6.75284 23.1619 6.59801 23.304 6.48722C23.4474 6.375 23.6037 6.29687 23.7727 6.25284C23.9432 6.20739 24.1108 6.18466 24.2756 6.18466C24.3807 6.18466 24.5014 6.19744 24.6378 6.22301C24.7756 6.24716 24.9084 6.29759 25.0362 6.37429C25.1655 6.45099 25.2727 6.56676 25.358 6.72159C25.4432 6.87642 25.4858 7.08381 25.4858 7.34375V9.5H24.983V9.05682H24.9574C24.9233 9.12784 24.8665 9.20384 24.7869 9.2848C24.7074 9.36577 24.6016 9.43466 24.4695 9.49148C24.3374 9.5483 24.1761 9.5767 23.9858 9.5767ZM24.0625 9.125C24.2614 9.125 24.429 9.08594 24.5653 9.00781C24.7031 8.92969 24.8068 8.82884 24.8764 8.70526C24.9474 8.58168 24.983 8.4517 24.983 8.31534V7.85511C24.9616 7.88068 24.9148 7.90412 24.8423 7.92543C24.7713 7.94531 24.6889 7.96307 24.5952 7.97869C24.5028 7.9929 24.4126 8.00568 24.3246 8.01705C24.2379 8.02699 24.1676 8.03551 24.1136 8.04261C23.983 8.05966 23.8608 8.08736 23.7472 8.12571C23.6349 8.16264 23.544 8.21875 23.4744 8.29403C23.4063 8.3679 23.3722 8.46875 23.3722 8.59659C23.3722 8.77131 23.4368 8.90341 23.5661 8.9929C23.6967 9.08097 23.8622 9.125 24.0625 9.125ZM26.9064 7.53125V9.5H26.4036V6.22727H26.8894V6.73864H26.932C27.0087 6.57244 27.1252 6.43892 27.2814 6.33807C27.4377 6.2358 27.6394 6.18466 27.8865 6.18466C28.1081 6.18466 28.302 6.23011 28.4682 6.32102C28.6344 6.41051 28.7637 6.54688 28.856 6.73011C28.9483 6.91193 28.9945 7.14205 28.9945 7.42045V9.5H28.4917V7.45455C28.4917 7.19744 28.4249 6.99716 28.2914 6.85369C28.1578 6.70881 27.9746 6.63636 27.7417 6.63636C27.5811 6.63636 27.4377 6.67116 27.3113 6.74077C27.1863 6.81037 27.0875 6.91193 27.0151 7.04545C26.9426 7.17898 26.9064 7.34091 26.9064 7.53125ZM31.1491 9.56818C30.8764 9.56818 30.6357 9.49929 30.4268 9.36151C30.218 9.2223 30.0547 9.02628 29.9368 8.77344C29.8189 8.51918 29.7599 8.21875 29.7599 7.87216C29.7599 7.52841 29.8189 7.23011 29.9368 6.97727C30.0547 6.72443 30.2188 6.52912 30.429 6.39134C30.6392 6.25355 30.8821 6.18466 31.1577 6.18466C31.3707 6.18466 31.5391 6.22017 31.6626 6.29119C31.7876 6.3608 31.8828 6.44034 31.9482 6.52983C32.0149 6.6179 32.0668 6.69034 32.1037 6.74716H32.1463V5.13636H32.6491V9.5H32.1634V8.99716H32.1037C32.0668 9.05682 32.0142 9.1321 31.946 9.22301C31.8778 9.3125 31.7805 9.39276 31.6541 9.46378C31.5277 9.53338 31.3594 9.56818 31.1491 9.56818ZM31.2173 9.11648C31.419 9.11648 31.5895 9.06392 31.7287 8.95881C31.8679 8.85227 31.9737 8.70526 32.0462 8.51776C32.1186 8.32884 32.1548 8.1108 32.1548 7.86364C32.1548 7.61932 32.1193 7.40554 32.0483 7.2223C31.9773 7.03764 31.8722 6.89418 31.733 6.7919C31.5938 6.68821 31.4219 6.63636 31.2173 6.63636C31.0043 6.63636 30.8267 6.69105 30.6847 6.80043C30.544 6.90838 30.4382 7.0554 30.3672 7.24148C30.2976 7.42614 30.2628 7.63352 30.2628 7.86364C30.2628 8.09659 30.2983 8.30824 30.3693 8.49858C30.4418 8.6875 30.5483 8.83807 30.6889 8.95028C30.831 9.06108 31.0071 9.11648 31.2173 9.11648ZM35.0121 9.56818C34.6967 9.56818 34.4247 9.49858 34.196 9.35938C33.9688 9.21875 33.7933 9.02273 33.6697 8.77131C33.5476 8.51847 33.4865 8.22443 33.4865 7.8892C33.4865 7.55398 33.5476 7.25852 33.6697 7.00284C33.7933 6.74574 33.9652 6.54545 34.1854 6.40199C34.407 6.2571 34.6655 6.18466 34.9609 6.18466C35.1314 6.18466 35.2997 6.21307 35.4659 6.26989C35.6321 6.3267 35.7834 6.41903 35.9197 6.54688C36.0561 6.6733 36.1648 6.84091 36.2457 7.04972C36.3267 7.25852 36.3672 7.51562 36.3672 7.82102V8.03409H33.8445V7.59943H35.8558C35.8558 7.41477 35.8189 7.25 35.745 7.10511C35.6726 6.96023 35.5689 6.84588 35.4339 6.76207C35.3004 6.67827 35.1428 6.63636 34.9609 6.63636C34.7607 6.63636 34.5874 6.68608 34.4411 6.78551C34.2962 6.88352 34.1847 7.01136 34.1065 7.16903C34.0284 7.3267 33.9893 7.49574 33.9893 7.67614V7.96591C33.9893 8.21307 34.032 8.42259 34.1172 8.59446C34.2038 8.76491 34.3239 8.89489 34.4773 8.98438C34.6307 9.07244 34.8089 9.11648 35.0121 9.11648C35.1442 9.11648 35.2635 9.09801 35.37 9.06108C35.478 9.02273 35.571 8.96591 35.6491 8.89062C35.7273 8.81392 35.7876 8.71875 35.8303 8.60511L36.3161 8.74148C36.2649 8.90625 36.179 9.05114 36.0582 9.17614C35.9375 9.29972 35.7884 9.39631 35.6108 9.46591C35.4332 9.53409 35.2337 9.56818 35.0121 9.56818ZM37.4192 6.22727L38.2033 7.56534L38.9874 6.22727H39.5669L38.5101 7.86364L39.5669 9.5H38.9874L38.2033 8.23011L37.4192 9.5H36.8397L37.8794 7.86364L36.8397 6.22727H37.4192Z" fill="black"/>
</svg>
